<svg width="24" height="24" viewBox="0 0 24 24" fill="none" xmlns="http://www.w3.org/2000/svg">
<path d="M12 16.475C13.65 15.1417 14.896 13.8583 15.738 12.625C16.58 11.3917 17.0007 10.2333 17 9.15C17 8.21667 16.829 7.42067 16.487 6.762C16.145 6.10333 15.7243 5.57 15.225 5.162C14.725 4.754 14.1833 4.45833 13.6 4.275C13.0167 4.09167 12.4833 4 12 4C11.5167 4 10.9833 4.09167 10.4 4.275C9.81667 4.45833 9.275 4.75433 8.775 5.163C8.275 5.571 7.85433 6.10433 7.513 6.763C7.17167 7.42167 7.00067 8.21733 7 9.15C7 10.2333 7.421 11.3917 8.263 12.625C9.105 13.8583 10.3507 15.1417 12 16.475ZM12 19C9.65 17.2667 7.896 15.5833 6.738 13.95C5.58 12.3167 5.00067 10.7167 5 9.15C5 7.96667 5.21267 6.929 5.638 6.037C6.06333 5.145 6.60867 4.39933 7.274 3.8C7.94067 3.2 8.69067 2.75 9.524 2.45C10.3573 2.15 11.1827 2 12 2C12.8167 2 13.6417 2.15 14.475 2.45C15.3083 2.75 16.0583 3.2 16.725 3.8C17.3917 4.4 17.9377 5.146 18.363 6.038C18.7883 6.93 19.0007 7.96733 19 9.15C19 10.7167 18.4207 12.3167 17.262 13.95C16.1033 15.5833 14.3493 17.2667 12 19ZM12 11C12.55 11 13.021 10.804 13.413 10.412C13.805 10.02 14.0007 9.54933 14 9C14 8.45 13.804 7.979 13.412 7.587C13.02 7.195 12.5493 6.99933 12 7C11.45 7 10.979 7.196 10.587 7.588C10.195 7.98 9.99933 8.45067 10 9C10 9.55 10.196 10.021 10.588 10.413C10.98 10.805 11.4507 11.0007 12 11ZM5 22V20H19V22H5Z" fill="#95C491"/>
</svg>
