<svg xmlns="http://www.w3.org/2000/svg" viewBox="0 0 348.1 57.4"><defs><style>.cls-1{fill:#fff;}</style></defs><g id="Слой_2" data-name="Слой 2"><g id="Layer_1" data-name="Layer 1"><path class="cls-1" d="M240.5,16.9a7.8,7.8,0,0,1-1,4.1,6.57,6.57,0,0,1-3,2.7,8.75,8.75,0,0,1,4.3,3.1,8.45,8.45,0,0,1,1.5,5,8.47,8.47,0,0,1-3.5,7.2c-2.3,1.6-5.8,2.5-10.3,2.5H216.9V37.4H221V12.5h-4.1V8.4h11.6q6,0,9,2.1A7.25,7.25,0,0,1,240.5,16.9Zm-5,.3a3.94,3.94,0,0,0-1.6-3.5,7.76,7.76,0,0,0-4.7-1.2h-3.3v9.7h3.3C233.5,22.1,235.5,20.5,235.5,17.2Zm1.6,14.5a4.65,4.65,0,0,0-1.9-4.1c-1.3-.9-3.3-1.3-6-1.3H226V37.4h2a22.46,22.46,0,0,0,4.9-.4,5.46,5.46,0,0,0,3.1-1.6A5.13,5.13,0,0,0,237.1,31.7Z"/><path class="cls-1" d="M256.5,37.4v4H244.8v-4h3.6v-15h-3.6V18.3h8.1v19h3.6Zm-3.2-26.8a2.69,2.69,0,1,1-2.7-2.7,3,3,0,0,1,2,.8A2.94,2.94,0,0,1,253.3,10.6Z"/><path class="cls-1" d="M268.1,22.4v9.3L278.4,24V22.4h-3.5V18.3h11.9v4.1h-3.9v15h3.9v4H274.9v-4h3.5V28l-10.3,7.7v1.7h3.6v4h-12v-4h3.9v-15h-3.9V18.3h12v4.1Zm5.2-10.2c2.5,0,3.7-1.3,3.7-3.8h3.6a6.34,6.34,0,0,1-1.9,5,8.12,8.12,0,0,1-5.4,1.7,7.92,7.92,0,0,1-5.4-1.6,6.21,6.21,0,0,1-1.9-5h3.6C269.6,10.9,270.8,12.2,273.3,12.2Z"/><path class="cls-1" d="M298.8,22.4v5.2h10.3V22.4h-3.5V18.3h11.9v4.1h-3.9v15h3.9v4H305.6v-4h3.5V31.2H298.8v6.2h3.6v4h-12v-4h3.9v-15h-3.9V18.3h12v4.1Z"/><path class="cls-1" d="M329.4,22.4v9.3L339.7,24V22.4h-3.5V18.3h11.9v4.1h-3.9v15h3.9v4H336.2v-4h3.5V28l-10.3,7.7v1.7H333v4H321v-4h3.9v-15H321V18.3h12v4.1Z"/><path class="cls-1" d="M0,25q0-5.25,3.6-7.8c2.4-1.7,5.8-2.5,10.2-2.5h1.3V11.9H11.2V8.4H23.9v3.5h-4v2.7h1c4.5,0,7.9.8,10.4,2.5A9,9,0,0,1,35,24.9c0,3.4-1.2,5.9-3.6,7.6S25.5,35,20.8,35h-.9v2.9h3.9v3.6H11.1V37.9H15V35.2h-.6q-6.6.15-10.5-2.4T0,25Zm5-.2a5.73,5.73,0,0,0,2.2,4.9c1.5,1.2,3.7,1.8,6.7,1.8h1.2V18.2H13.6c-2.8,0-5,.6-6.4,1.7A5.86,5.86,0,0,0,5,24.8Zm24.9,0c0-4.4-2.8-6.6-8.5-6.6H19.9V31.5h1c3,0,5.2-.5,6.7-1.6A5.94,5.94,0,0,0,29.9,24.8Z"/><path class="cls-1" d="M61.7,29.9A12,12,0,0,1,49.6,42a12.31,12.31,0,0,1-6.3-1.6A11.35,11.35,0,0,1,39,36a12.81,12.81,0,0,1-1.5-6.1A13.32,13.32,0,0,1,39,23.6a11.11,11.11,0,0,1,4.3-4.3,12.8,12.8,0,0,1,6.3-1.6,12,12,0,0,1,6.2,1.7,11.35,11.35,0,0,1,4.3,4.4A11.84,11.84,0,0,1,61.7,29.9ZM49.6,37.7a7.29,7.29,0,0,0,6.3-3.9,8.6,8.6,0,0,0,.9-3.9,7.9,7.9,0,0,0-.9-3.8,8,8,0,0,0-2.6-2.9,7,7,0,0,0-3.8-1.1,7,7,0,0,0-3.7,1.1,8.38,8.38,0,0,0-2.7,2.9,8.68,8.68,0,0,0-1,3.9,7.56,7.56,0,0,0,1,3.9,6.86,6.86,0,0,0,2.7,2.9A10.07,10.07,0,0,0,49.6,37.7Z"/><path class="cls-1" d="M72,22.4V29L83.7,18.3h5.8v4.1H84.8l-7.4,6.9,8.1,8.1h4v4H83.6L72,29.8v7.5h3.6v4h-12v-4h3.9v-15H63.6V18.2H75.4v4.1H72Z"/><path class="cls-1" d="M101.8,22.4l5,13,4.8-13h-3.1V18.3h11v4.1h-3.4L104.7,51.7H97V47.8h4.5l2.7-6.8L96.9,22.4H93V18.3h11.5v4.1Z"/><path class="cls-1" d="M138.8,20V18.3h4V27h-4a5.33,5.33,0,0,0-2-3.9,6.48,6.48,0,0,0-4.1-1.3,6.06,6.06,0,0,0-3.5,1.1,6.84,6.84,0,0,0-2.4,2.9,8.6,8.6,0,0,0-.9,3.9,8.72,8.72,0,0,0,1.9,5.9,6.47,6.47,0,0,0,5.1,2.3,7,7,0,0,0,6.9-4.5l3.8,1.8c-2.1,4.6-5.7,6.9-10.9,6.9a11.35,11.35,0,0,1-6.1-1.6,10.49,10.49,0,0,1-4.1-4.5,13.32,13.32,0,0,1-1.5-6.3,12.26,12.26,0,0,1,1.5-6.1,10.62,10.62,0,0,1,4.1-4.3,11.4,11.4,0,0,1,5.8-1.5A9.58,9.58,0,0,1,138.8,20Z"/><path class="cls-1" d="M179.9,57.4a28.7,28.7,0,1,1,28.7-28.7A28.76,28.76,0,0,1,179.9,57.4Zm0-56.2a27.4,27.4,0,1,0,27.4,27.4A27.44,27.44,0,0,0,179.9,1.2Z"/><path class="cls-1" d="M183.2,27.4a8.28,8.28,0,0,0,4.5-1.3,5,5,0,0,0,1.8-4.3c0-3.6-2.3-5.4-7-5.4h-.4v11h1.1Z"/><path class="cls-1" d="M183.4,30.4H182v11h.7c2.5,0,4.4-.4,5.6-1.3a5,5,0,0,0,1.8-4.3C190.1,32.3,187.9,30.5,183.4,30.4Z"/><path class="cls-1" d="M169.7,21.9a5.11,5.11,0,0,0,1.8,4.3c1.2.9,3.1,1.3,5.6,1.3h.9v-11h-1.3C172,16.4,169.7,18.3,169.7,21.9Z"/><path class="cls-1" d="M179.9,2a26.7,26.7,0,1,0,26.7,26.7A26.69,26.69,0,0,0,179.9,2Zm11.4,40.3c-2,1.4-4.9,2.1-8.8,2.1H182v1.5h3.3v3H174.8v-3h3.3V30.5h-.7c-3.8,0-6.8-.7-8.8-2.1a7.18,7.18,0,0,1-3-6.3c0-2.9,1-5.1,3-6.5s4.9-2.1,8.6-2.1h.9V11.7h-3.3v-3h10.5v3H182v1.8h0c3.7,0,6.6.7,8.6,2.1s3,3.6,3,6.5a7.18,7.18,0,0,1-3,6.3,2.51,2.51,0,0,1-.7.4c.5.2.9.5,1.3.7,2,1.4,3,3.6,3,6.5A6.89,6.89,0,0,1,191.3,42.3Z"/></g></g></svg>