<svg width="25" height="24" viewBox="0 0 25 24" fill="none" xmlns="http://www.w3.org/2000/svg">
<path fill-rule="evenodd" clip-rule="evenodd" d="M2 11.9999C2 11.659 2.13168 11.332 2.36607 11.091C2.60048 10.8499 2.91838 10.7145 3.24986 10.7145H17.7307L12.3638 5.19723C12.2476 5.07771 12.1555 4.93581 12.0925 4.77965C12.0296 4.62349 11.9973 4.45612 11.9973 4.28711C11.9973 4.11808 12.0296 3.95071 12.0925 3.79455C12.1555 3.63839 12.2476 3.4965 12.3638 3.37699C12.4801 3.25747 12.6179 3.16266 12.7697 3.09797C12.9217 3.03329 13.0844 3 13.2487 3C13.413 3 13.5758 3.03329 13.7276 3.09797C13.8794 3.16266 14.0174 3.25747 14.1336 3.37699L21.6327 11.0898C21.7492 11.2093 21.8415 11.3512 21.9045 11.5073C21.9675 11.6635 22 11.8309 22 11.9999C22 12.1691 21.9675 12.3366 21.9045 12.4927C21.8415 12.6488 21.7492 12.7908 21.6327 12.9101L14.1336 20.6229C13.8989 20.8644 13.5806 21 13.2487 21C12.9169 21 12.5986 20.8644 12.3638 20.6229C12.1291 20.3816 11.9973 20.0542 11.9973 19.7128C11.9973 19.3716 12.1291 19.0442 12.3638 18.8027L17.7307 13.2854H3.24986C2.91838 13.2854 2.60048 13.15 2.36607 12.909C2.13168 12.6679 2 12.3408 2 11.9999Z" fill="#B1B1B1"/>
</svg>
