<svg width="14" height="20" viewBox="0 0 14 20" fill="none" xmlns="http://www.w3.org/2000/svg">
<path d="M7 14.475C8.65 13.1417 9.896 11.8583 10.738 10.625C11.58 9.3917 12.0007 8.2333 12 7.15C12 6.21667 11.829 5.42067 11.487 4.762C11.145 4.10333 10.7243 3.57 10.225 3.162C9.725 2.754 9.1833 2.45833 8.6 2.275C8.0167 2.09167 7.4833 2 7 2C6.5167 2 5.9833 2.09167 5.4 2.275C4.81667 2.45833 4.275 2.75433 3.775 3.163C3.275 3.571 2.85433 4.10433 2.513 4.763C2.17167 5.42167 2.00067 6.21733 2 7.15C2 8.2333 2.421 9.3917 3.263 10.625C4.105 11.8583 5.3507 13.1417 7 14.475ZM7 17C4.65 15.2667 2.896 13.5833 1.738 11.95C0.58 10.3167 0.00067 8.7167 0 7.15C0 5.96667 0.21267 4.929 0.638 4.037C1.06333 3.145 1.60867 2.39933 2.274 1.8C2.94067 1.2 3.69067 0.75 4.524 0.45C5.3573 0.15 6.1827 0 7 0C7.8167 0 8.6417 0.15 9.475 0.45C10.3083 0.75 11.0583 1.2 11.725 1.8C12.3917 2.4 12.9377 3.146 13.363 4.038C13.7883 4.93 14.0007 5.96733 14 7.15C14 8.7167 13.4207 10.3167 12.262 11.95C11.1033 13.5833 9.3493 15.2667 7 17ZM7 9C7.55 9 8.021 8.804 8.413 8.412C8.805 8.02 9.0007 7.54933 9 7C9 6.45 8.804 5.979 8.412 5.587C8.02 5.195 7.5493 4.99933 7 5C6.45 5 5.979 5.196 5.587 5.588C5.195 5.98 4.99933 6.45067 5 7C5 7.55 5.196 8.021 5.588 8.413C5.98 8.805 6.4507 9.0007 7 9ZM0 20V18H14V20H0Z" fill="#C9AB42"/>
</svg>
