<svg width="164" height="33" viewBox="0 0 164 33" fill="none" xmlns="http://www.w3.org/2000/svg">
<path d="M13.0517 7.14107C12.6123 7.14107 12.063 7.14107 11.6235 7.14107C11.6235 5.05368 11.6235 2.85643 11.6235 0.769038C12.1728 1.09863 12.6123 1.64794 12.832 2.30711C12.9419 2.52684 12.9419 2.74656 12.9419 2.96629C12.9419 3.07615 12.9419 3.18601 12.9419 3.29588C12.9419 3.40574 12.9419 3.5156 12.9419 3.62546C12.9419 3.73533 12.9419 3.84519 12.9419 4.06491C12.9419 4.17478 12.9419 4.28464 12.9419 4.3945C12.9419 4.50436 12.9419 4.61423 12.9419 4.72409C12.9419 4.72409 12.9419 4.72409 12.832 4.72409C12.7222 4.72409 12.7222 4.72409 12.6123 4.72409C12.3926 4.83395 12.2827 4.94381 12.2827 5.16354C12.2827 5.38327 12.3926 5.60299 12.6123 5.60299C12.7222 5.60299 12.832 5.60299 12.832 5.60299C12.9419 5.49313 12.9419 5.38327 13.0517 5.16354C13.1616 5.05368 13.1616 4.94381 13.1616 4.72409C13.2715 4.50436 13.3813 4.17478 13.3813 3.84519C13.3813 3.73533 13.3813 3.5156 13.4912 3.40574C13.4912 3.18601 13.4912 2.96629 13.4912 2.74656C13.4912 2.52684 13.4912 2.30711 13.4912 2.19725C13.4912 1.97753 13.4912 1.86766 13.4912 1.64794C13.4912 1.42821 13.4912 1.09863 13.4912 0.8789C13.4912 0.549313 13.6011 0.329588 13.8208 0C13.9306 0.219725 14.0405 0.43945 14.1504 0.659175C14.1504 0.769038 14.1504 0.8789 14.1504 0.8789C14.1504 0.988763 14.1504 1.09863 14.1504 1.20849C14.1504 1.42821 14.1504 1.53808 14.1504 1.7578C14.1504 1.86766 14.1504 1.97753 14.1504 1.97753C14.1504 2.19725 14.1504 2.30711 14.1504 2.52684C14.1504 2.6367 14.1504 2.74656 14.1504 2.96629C14.1504 3.07615 14.1504 3.18601 14.1504 3.29588C14.1504 3.5156 14.1504 3.62546 14.2602 3.84519C14.3701 4.17478 14.48 4.61423 14.5898 4.94381C14.5898 5.05368 14.6997 5.16354 14.8095 5.2734C14.8095 5.2734 14.8095 5.38327 14.9194 5.38327H15.0293H15.1391C15.3589 5.38327 15.4687 5.16354 15.4687 4.94381C15.4687 4.72409 15.3589 4.61423 15.1391 4.50436H15.0293C15.0293 4.50436 15.0293 4.50436 14.9194 4.50436V4.3945C14.9194 4.28464 14.9194 4.06491 15.0293 3.95505C15.0293 3.84519 15.0293 3.62546 15.0293 3.5156C15.0293 3.40574 15.0293 3.18601 15.1391 3.07615C15.1391 2.96629 15.1391 2.85643 15.1391 2.6367C15.1391 2.30711 15.249 2.08739 15.3589 1.7578C15.5786 1.20849 16.018 0.8789 16.4575 0.549313C16.4575 2.6367 16.4575 4.83395 16.4575 6.92134C16.018 6.92134 15.4687 6.92134 15.0293 6.92134V7.0312C14.9194 7.58052 14.5898 8.01997 14.1504 8.34955L14.0405 8.45942L13.9306 8.56928C14.2602 8.89887 14.2602 8.89887 14.2602 8.89887C14.1504 8.789 14.1504 8.67914 14.0405 8.67914C13.8208 8.45942 13.6011 8.23969 13.3813 7.9101C13.2715 7.69038 13.1616 7.47065 13.0517 7.14107ZM12.7222 4.3945C12.7222 4.17478 12.7222 4.06491 12.6123 3.95505C12.6123 3.84519 12.6123 3.73533 12.6123 3.5156C12.6123 3.40574 12.6123 3.18601 12.5024 3.07615C12.5024 2.96629 12.5024 2.85643 12.5024 2.74656C12.5024 2.30711 12.2827 1.97753 12.063 1.7578C12.063 2.85643 12.063 3.95505 12.063 5.05368C12.1728 5.05368 12.2827 5.05368 12.2827 5.05368C12.3926 4.72409 12.5024 4.50436 12.7222 4.3945ZM16.4575 1.64794C16.4575 1.7578 16.4575 1.7578 16.4575 1.64794C16.1279 1.97753 16.018 2.41698 15.9082 2.85643C15.9082 2.96629 15.9082 3.07615 15.9082 3.29588C15.9082 3.40574 15.9082 3.62546 15.7983 3.73533C15.7983 3.84519 15.7983 3.95505 15.7983 4.17478C15.7983 4.28464 15.7983 4.28464 15.7983 4.3945C16.018 4.50436 16.2378 4.72409 16.2378 4.94381C16.3476 4.94381 16.3476 4.94381 16.4575 4.94381C16.4575 3.84519 16.4575 2.74656 16.4575 1.64794ZM12.2827 5.38327C12.1728 5.38327 12.1728 5.38327 12.063 5.38327C12.063 5.82272 12.063 6.26217 12.063 6.70162C12.3926 6.70162 12.7222 6.70162 13.0517 6.70162C13.0517 6.48189 13.0517 6.26217 13.1616 6.04244C13.0517 6.04244 13.0517 6.04244 12.9419 6.04244C12.6123 5.93258 12.3926 5.71285 12.2827 5.38327ZM15.4687 6.70162C15.7983 6.70162 16.1279 6.70162 16.4575 6.70162C16.4575 6.59175 16.4575 5.38327 16.4575 5.38327C16.3476 5.38327 16.3476 5.38327 16.2378 5.38327C16.1279 5.71285 15.9082 5.93258 15.5786 5.93258H15.4687C15.4687 6.04244 15.4687 6.1523 15.5786 6.26217C15.4687 6.48189 15.4687 6.59175 15.4687 6.70162ZM14.6997 5.71285C14.48 5.38327 14.3701 5.05368 14.2602 4.61423C14.1504 4.94381 13.9306 5.38327 13.8208 5.71285C14.0405 5.82272 14.1504 5.93258 14.2602 6.04244C14.3701 5.93258 14.5898 5.82272 14.6997 5.71285ZM14.0405 7.14107C13.8208 7.14107 13.7109 7.14107 13.4912 7.14107C13.4912 7.36079 13.6011 7.47065 13.7109 7.58052C13.8208 7.69038 13.9306 7.9101 14.0405 8.01997C14.0405 7.80024 14.0405 7.47065 14.0405 7.14107ZM14.9194 7.14107C14.6997 7.14107 14.5898 7.14107 14.3701 7.14107C14.3701 7.47065 14.3701 7.69038 14.3701 8.01997C14.6997 7.80024 14.9194 7.47065 14.9194 7.14107ZM14.0405 6.70162C14.0405 6.48189 13.8208 6.1523 13.6011 6.1523C13.6011 6.37203 13.4912 6.48189 13.4912 6.70162C13.7109 6.70162 13.8208 6.70162 14.0405 6.70162ZM14.48 6.70162C14.6997 6.70162 14.8095 6.70162 15.0293 6.70162C15.0293 6.48189 15.0293 6.37203 14.9194 6.1523C14.5898 6.26217 14.48 6.48189 14.48 6.70162Z" fill="white"/>
<path d="M20.8519 13.7331L21.1815 13.4035C21.621 13.6232 22.0604 13.7331 22.4999 13.843L23.2689 16.0402L23.7083 13.843C24.2577 13.7331 24.807 13.4035 25.2464 13.0739L26.6746 13.7331L25.9056 12.195C26.345 11.6457 26.5648 10.9865 26.5648 10.3274L28.5423 9.33859L26.345 9.009C26.2352 8.56955 26.0155 8.23996 25.7957 7.91038L26.8944 5.93285L25.0267 7.14134C24.6971 6.92161 24.2577 6.70189 23.9281 6.59203H24.0379L23.7083 4.39478L22.7196 6.48216H22.8294C22.1703 6.48216 21.5111 6.70189 20.9618 7.14134L19.5336 6.26244L20.1927 7.80051C19.7533 8.23997 19.5336 8.78928 19.3138 9.33859V9.22873L17.0067 9.66818L19.204 10.4372V10.3274C19.204 10.7668 19.3138 11.0964 19.4237 11.5358C19.4237 11.5358 19.4237 11.5358 19.3138 11.5358L18.8744 11.9753C18.7645 12.0852 18.7645 12.195 18.8744 12.3049C18.7645 12.195 18.6547 12.195 18.5448 12.3049L18.3251 12.5246C18.2152 12.6345 18.2152 12.7443 18.3251 12.8542L18.5448 13.0739L13.8207 17.5783L12.5024 16.2599L13.9306 14.8317C14.1503 14.612 14.1503 14.2824 13.9306 14.0627L10.5248 10.4372C10.3051 10.2175 9.97552 10.2175 9.75579 10.4372L8.43744 11.7556L8.10786 11.426C8.43745 10.3274 8.32758 9.11887 7.77827 8.1301L7.88813 8.02024C8.10786 7.80051 8.10786 7.47093 7.88813 7.2512L7.00923 6.3723C6.78951 6.15258 6.45992 6.15258 6.24019 6.3723L6.13033 6.48216C4.59226 5.60326 2.50487 5.82299 1.18652 7.2512C-0.131835 8.56955 -0.35156 10.5471 0.52734 12.195L0.417478 12.3049C0.197753 12.5246 0.197753 12.8542 0.417478 13.0739L1.29638 13.9528C1.5161 14.1725 1.84569 14.1725 2.06542 13.9528L2.17528 13.843C3.16404 14.3923 4.37253 14.5021 5.47116 14.1725L5.80074 14.5021L4.37253 15.8205C4.1528 16.0402 4.1528 16.3698 4.37253 16.5895L7.99799 20.215C8.21772 20.4347 8.54731 20.4347 8.76703 20.215L10.1952 18.7868L11.5136 19.9953L4.92184 26.3673L4.81198 26.2574C4.70212 26.1476 4.59226 26.1476 4.48239 26.2574L4.26267 26.4772C4.15281 26.587 4.15281 26.6969 4.26267 26.8067C4.15281 26.6969 3.93308 26.6969 3.82322 26.8067L3.49363 27.1363C3.38377 27.2462 3.38377 27.4659 3.49363 27.5758C3.38377 27.4659 3.16404 27.4659 3.05418 27.5758L2.72459 27.9054C2.61473 28.0152 2.61473 28.235 2.72459 28.3448L2.61473 28.235C2.50487 28.1251 2.395 28.1251 2.28514 28.235L2.17528 28.3448C2.06542 28.4547 2.06542 28.5645 2.17528 28.6744L2.395 28.8941L2.28514 28.7843C2.17528 28.6744 2.06542 28.6744 1.95555 28.7843L1.84569 28.6744C1.73583 28.7843 1.73583 28.8941 1.84569 29.004C1.5161 29.1139 1.18652 29.2237 0.856928 29.5533C0.197753 30.2125 0.197753 31.421 0.856928 32.0801C1.5161 32.7393 2.72459 32.7393 3.38377 32.0801C3.60349 31.8604 3.82322 31.421 3.93308 31.0914C4.04294 31.2012 4.15281 31.2012 4.26267 31.0914L4.37253 30.8717C4.48239 30.7618 4.48239 30.6519 4.37253 30.5421C4.48239 30.6519 4.59226 30.6519 4.70212 30.5421L4.81198 30.4322C4.92184 30.3223 4.92184 30.2125 4.81198 30.1026L4.70212 29.9928C4.81198 30.1026 5.03171 30.1026 5.14157 29.9928L5.36129 29.773C5.47116 29.6632 5.47116 29.4434 5.36129 29.3336C5.47116 29.4434 5.69088 29.4434 5.80074 29.3336L6.13033 29.004C6.24019 28.8941 6.24019 28.6744 6.13033 28.5645C6.24019 28.6744 6.35006 28.6744 6.45992 28.5645L6.56978 28.3448C6.67964 28.235 6.67964 28.1251 6.56978 28.0152L6.45992 27.9054L12.8319 21.2037L23.0492 30.9815C23.2689 31.2012 23.5985 31.2012 23.7083 31.0914L25.2464 32.5196C25.3563 32.6295 25.576 32.6295 25.6859 32.5196L26.0155 32.19L26.345 31.8604C26.4549 31.7506 26.4549 31.6407 26.345 31.421L24.9168 29.8829L25.0267 29.773C25.2464 29.5533 25.1366 29.3336 24.9168 29.1139L15.2489 18.7868L19.8632 14.0627L20.0829 14.2824C20.1927 14.3923 20.3026 14.3923 20.4125 14.2824L20.6322 14.0627C20.7421 13.9528 20.7421 13.843 20.6322 13.7331C20.5223 13.843 20.7421 13.843 20.8519 13.7331ZM10.1952 12.5246C10.3051 12.4147 10.415 12.3049 10.6347 12.3049C10.7446 12.3049 10.9643 12.4147 11.0741 12.5246L10.8544 12.7443L10.7446 12.6345C10.6347 12.5246 10.6347 12.5246 10.5248 12.5246C10.5248 12.5246 10.415 12.5246 10.415 12.6345L10.3051 12.7443C10.3051 12.7443 10.3051 12.8542 10.415 12.9641C10.5248 13.0739 10.5248 13.0739 10.6347 13.0739C10.7446 13.0739 10.7446 13.0739 10.8544 13.0739C10.9643 13.0739 10.9643 13.0739 11.0741 13.0739C11.184 13.0739 11.2939 13.0739 11.2939 13.0739C11.4037 13.0739 11.5136 13.0739 11.5136 13.1838C11.6235 13.1838 11.7333 13.2936 11.7333 13.4035C11.8432 13.5134 11.953 13.7331 11.953 13.843C11.953 13.9528 11.8432 14.1725 11.7333 14.2824C11.6235 14.3923 11.5136 14.5021 11.2939 14.5021C11.184 14.5021 10.9643 14.3923 10.8544 14.2824L10.7446 14.1725L10.9643 13.9528L11.0741 14.0627C11.184 14.1725 11.184 14.1725 11.2939 14.1725C11.2939 14.1725 11.4037 14.1725 11.4037 14.0627L11.5136 13.9528C11.5136 13.9528 11.5136 13.843 11.4037 13.7331C11.2939 13.6232 11.2939 13.6232 11.184 13.6232C11.0741 13.6232 11.0741 13.6232 10.9643 13.6232C10.8544 13.6232 10.8544 13.6232 10.7446 13.6232C10.6347 13.6232 10.5248 13.6232 10.5248 13.6232C10.415 13.6232 10.3051 13.6232 10.3051 13.5134C10.1952 13.5134 10.0854 13.4035 10.0854 13.2936C9.97552 13.1838 9.86566 12.9641 9.86566 12.8542C10.0854 12.8542 10.0854 12.7443 10.1952 12.5246ZM7.88813 18.3473L6.13033 16.5895L6.56978 16.2599C6.67964 16.1501 6.78951 16.0402 7.00923 16.0402C7.11909 16.0402 7.33882 16.1501 7.44868 16.2599L7.66841 16.4797C7.77827 16.5895 7.88813 16.8092 7.88813 16.9191C7.88813 17.029 7.77827 17.1388 7.66841 17.3586L7.55854 17.4684L8.21772 18.1276L7.88813 18.3473ZM9.42621 16.9191C9.31635 16.9191 9.31635 16.9191 9.42621 16.9191C9.31635 16.8092 9.31635 16.8092 9.42621 16.9191C9.31635 16.8092 9.31635 16.8092 9.31635 16.8092C9.31635 16.8092 9.31634 16.8092 9.20648 16.6994L8.98676 16.4797C8.76703 16.3698 8.76703 16.2599 8.65717 16.2599C8.54731 16.2599 8.54731 16.2599 8.43744 16.3698L8.32758 16.4797L8.98676 17.1388L8.76703 17.4684L7.00923 15.7106L7.44868 15.2712C7.55854 15.1613 7.66841 15.0514 7.88813 15.0514C7.99799 15.0514 8.10786 15.1613 8.32758 15.2712L8.43744 15.4909C8.65717 15.7106 8.65717 15.8205 8.65717 16.0402C8.76703 16.0402 8.87689 16.0402 8.98676 16.0402C9.09662 16.0402 9.20648 16.1501 9.20648 16.2599L9.42621 16.4797L9.53607 16.5895C9.53607 16.5895 9.64593 16.5895 9.64593 16.6994L9.42621 16.9191ZM9.75579 16.4797L7.99799 14.7219L8.76703 14.0627L8.98676 14.2824L8.54731 14.7219L8.98676 15.1613L9.31635 14.8317L9.53607 15.0514L9.31635 15.4909L9.86566 15.9303L10.3051 15.4909L10.5248 15.7106L9.75579 16.4797ZM11.0741 15.2712C10.9643 15.381 10.8544 15.4909 10.6347 15.4909C10.5248 15.4909 10.3051 15.381 10.1952 15.2712L10.0854 15.1613L10.3051 14.9416L10.415 15.0514C10.5248 15.1613 10.5248 15.1613 10.6347 15.1613C10.7446 15.1613 10.7446 15.1613 10.7446 15.0514L10.8544 14.9416C10.8544 14.9416 10.8544 14.8317 10.7446 14.7219C10.6347 14.612 10.6347 14.612 10.5248 14.612C10.415 14.612 10.415 14.612 10.3051 14.612C10.1952 14.612 10.1952 14.612 10.0854 14.612C9.97552 14.612 9.86566 14.612 9.86566 14.612C9.7558 14.612 9.64593 14.612 9.64593 14.5021C9.53607 14.5021 9.42621 14.3923 9.42621 14.2824C9.31635 14.1725 9.20648 13.9528 9.20648 13.843C9.20648 13.7331 9.20648 13.5134 9.42621 13.4035C9.42621 13.2936 9.64593 13.2936 9.75579 13.2936C9.86566 13.2936 10.0854 13.4035 10.1952 13.5134L9.97552 13.7331H9.86566C9.7558 13.6232 9.7558 13.6232 9.64593 13.6232C9.64593 13.6232 9.53607 13.6232 9.53607 13.7331L9.42621 13.843C9.42621 13.843 9.42621 13.9528 9.53607 14.0627C9.64593 14.1725 9.64593 14.1725 9.75579 14.1725C9.86566 14.1725 9.86566 14.1725 9.97552 14.1725C10.0854 14.1725 10.0854 14.1725 10.1952 14.1725C10.3051 14.1725 10.415 14.1725 10.415 14.1725C10.5248 14.1725 10.6347 14.1725 10.6347 14.2824C10.7446 14.2824 10.8544 14.3923 10.8544 14.5021C10.9643 14.612 11.0741 14.8317 11.0741 14.9416C11.2939 14.9416 11.184 15.0514 11.0741 15.2712Z" fill="white"/>
<path d="M7.11914 16.5896C7.00928 16.4797 7.00928 16.4797 7.00928 16.4797C7.00928 16.4797 6.89941 16.4797 6.89941 16.5896L6.78955 16.6995L7.33886 17.2488L7.44873 17.1389L7.55859 17.029C7.55859 17.029 7.55859 16.9192 7.44873 16.9192L7.11914 16.5896Z" fill="white"/>
<path d="M8.10791 15.6011C7.99804 15.6011 7.99804 15.4912 7.88818 15.4912C7.88818 15.4912 7.77832 15.4912 7.77832 15.6011L7.66846 15.7109L8.21777 16.2602L8.32763 16.1504L8.43749 16.0405C8.43749 16.0405 8.43749 15.9307 8.32763 15.8208L8.10791 15.6011Z" fill="white"/>
<path d="M44.0331 8.89868C43.5937 9.00854 43.2641 9.22827 43.0444 9.55785C42.7148 9.88744 42.2753 10.6565 41.726 11.9748L38.4301 19.006C37.4414 21.2033 36.5625 22.6315 35.9033 23.2907C35.1342 24.0597 34.2553 24.3893 33.2666 24.3893C32.6074 24.3893 32.0581 24.2794 31.5088 24.1696V21.2033H32.7173C32.8271 22.0822 33.1567 22.5216 33.8159 22.5216C34.6948 22.5216 35.5737 21.7526 36.3427 20.3244L32.6074 12.0847C32.0581 10.7663 31.6186 9.9973 31.3989 9.66772C31.1792 9.33813 30.8496 9.1184 30.4102 9.00854V8.34937H35.354V8.89868C34.5849 9.00854 34.2553 9.33813 34.2553 9.77758C34.2553 10.3269 34.4751 10.9861 34.9145 12.0847L37.5512 18.0173L39.8583 12.634C40.4076 11.5354 40.6274 10.6565 40.6274 9.9973C40.6274 9.33813 40.2978 8.89868 39.6386 8.89868V8.34937H44.143V8.89868H44.0331Z" fill="white"/>
<path d="M51.7236 24.1698V23.6205L50.4052 20.5444C50.0756 19.7753 49.7461 19.3359 49.4165 19.1162C49.0869 18.8964 48.6474 18.7866 48.0981 18.7866H47.2192V21.2036C47.2192 22.1923 47.3291 22.7416 47.4389 22.9614C47.6587 23.1811 47.9883 23.4008 48.4277 23.5107V24.06H43.9233V23.5107C44.4727 23.4008 44.8022 23.1811 44.9121 22.8515C45.022 22.6318 45.1318 21.9726 45.1318 21.2036V15.6006C45.1318 14.9414 45.022 14.3921 44.9121 14.1724C44.6924 13.9526 44.3628 13.7329 43.9233 13.623V13.0737H48.4277V13.623C47.9883 13.7329 47.6587 13.9526 47.4389 14.1724C47.2192 14.3921 47.1094 14.9414 47.1094 15.6006V18.0175H47.9883C48.5376 18.0175 48.8672 17.9077 49.1967 17.5781C49.5263 17.2485 49.8559 16.5893 50.1855 15.7104C50.625 14.7217 50.9545 14.0625 51.394 13.623C51.8334 13.1836 52.4926 12.9639 53.5912 12.9639C53.9208 12.9639 54.2504 12.9639 54.6899 13.0737V15.3808H53.5912C53.4814 14.9414 53.2617 14.6118 52.8222 14.6118C52.4926 14.6118 52.2729 14.7217 52.0532 14.8315C51.8334 15.0513 51.6137 15.3808 51.2841 16.04C50.7348 17.2485 50.1855 18.0175 49.6362 18.2373V18.3471C50.7348 18.6767 51.6137 19.3359 52.163 20.3247L53.0419 22.0825C53.3715 22.6318 53.5912 22.9614 53.811 23.1811C54.0307 23.4008 54.4701 23.5107 54.9096 23.6205V24.1698H51.7236Z" fill="white"/>
<path d="M59.8535 23.8403V29.7728C59.8535 30.3221 59.8535 30.6517 59.8535 30.8715C59.8535 31.0912 59.9634 31.3109 60.0732 31.4208C60.1831 31.5306 60.2929 31.6405 60.4028 31.7504C60.5127 31.8602 60.8423 31.9701 61.1718 31.9701V32.5194H56.4478V31.9701C56.7773 31.8602 56.9971 31.8602 57.1069 31.7504C57.3267 31.6405 57.4365 31.5306 57.5464 31.4208C57.6562 31.3109 57.6562 31.0912 57.7661 30.7616C57.876 30.432 57.7661 30.1024 57.7661 29.663V16.3696C57.7661 15.8203 57.7661 15.3808 57.7661 15.1611C57.7661 14.9414 57.7661 14.7217 57.6562 14.6118C57.6562 14.5019 57.5464 14.2822 57.4365 14.2822C57.3267 14.1724 57.2168 14.0625 57.1069 14.0625C56.9971 13.9526 56.6675 13.9526 56.3379 13.8428V13.1836L59.0845 13.0737H59.7436L59.6338 14.9414H59.8535C60.2929 14.5019 60.7324 14.0625 60.9521 13.8428C61.1718 13.623 61.5014 13.4033 61.831 13.2935C62.1606 13.1836 62.3803 13.0737 62.7099 12.9639C63.0395 12.854 63.2592 12.854 63.5888 12.854C64.9072 12.854 65.8959 13.2935 66.5551 14.2822C67.2143 15.271 67.5439 16.5893 67.5439 18.457C67.5439 19.7753 67.3241 20.7641 66.9946 21.643C66.5551 22.5219 66.0058 23.1811 65.3466 23.6205C64.5776 24.06 63.6987 24.2797 62.7099 24.2797C62.1606 24.2797 61.6113 24.2797 61.1718 24.1698C60.7324 24.1698 60.2929 23.9501 59.8535 23.8403ZM59.8535 19.9951C59.8535 20.7641 59.8535 21.3134 59.9634 21.7529C60.0732 22.1923 60.1831 22.5219 60.4028 22.7416C60.6225 22.9614 60.9521 23.1811 61.2817 23.2909C61.6113 23.4008 62.0507 23.5107 62.6001 23.5107C63.5888 23.5107 64.248 23.0712 64.6874 22.3022C65.1269 21.5331 65.3466 20.3247 65.3466 18.8964C65.3466 15.8203 64.4677 14.3921 62.7099 14.3921C62.2705 14.3921 61.9409 14.5019 61.6113 14.6118C61.2817 14.7217 60.9521 14.9414 60.6225 15.271C60.2929 15.6006 60.0732 15.8203 59.9634 16.1499C59.8535 16.4795 59.7436 16.6992 59.7436 17.0288V19.9951H59.8535Z" fill="white"/>
<path d="M76.6621 22.5219H76.4423C75.7832 23.1811 75.124 23.7304 74.5747 23.9501C74.0254 24.2797 73.3662 24.3896 72.707 24.3896C72.1577 24.3896 71.6084 24.2797 71.1689 24.06C70.7295 23.8403 70.3999 23.5107 70.1802 23.0712C69.9605 22.6318 69.8506 22.1923 69.8506 21.643C69.8506 20.5444 70.3999 19.6655 71.4985 19.0063C72.5971 18.3471 74.2451 18.0175 76.5522 17.9077V17.1386C76.5522 16.3696 76.4423 15.7104 76.3325 15.271C76.2226 14.8315 75.893 14.5019 75.5634 14.2822C75.2339 14.0625 74.7944 13.9526 74.2451 13.9526C73.6958 13.9526 73.1465 14.0625 72.8169 14.3921C72.4873 14.7217 72.1577 15.1611 71.938 15.8203H70.3999V14.2822C71.1689 13.8428 71.7183 13.623 72.2676 13.4033C72.8169 13.1836 73.2563 13.0737 73.8056 12.9639C74.3549 12.854 74.7944 12.854 75.3437 12.854C76.1128 12.854 76.7719 12.9639 77.2114 13.1836C77.6508 13.4033 77.9804 13.8428 78.31 14.2822C78.5297 14.8315 78.6396 15.4907 78.6396 16.5893V20.6542C78.6396 21.2036 78.6396 21.643 78.6396 21.8627C78.6396 22.0825 78.6396 22.3022 78.7495 22.5219C78.8593 22.7416 78.8593 22.8515 78.9692 22.9614C79.079 23.0712 79.1889 23.1811 79.2988 23.2909C79.4086 23.4008 79.7382 23.5107 80.0678 23.5107V24.06H76.8818L76.6621 22.5219ZM76.4423 18.8964C74.9043 18.8964 73.6958 19.1162 72.9267 19.5556C72.1577 19.9951 71.7183 20.5444 71.7183 21.4233C71.7183 21.8627 71.8281 22.1923 71.938 22.5219C72.1577 22.7416 72.3774 22.9614 72.5971 23.0712C72.8169 23.1811 73.1465 23.1811 73.5859 23.1811C74.1352 23.1811 74.5747 23.0712 75.0141 22.8515C75.4536 22.6318 75.7832 22.3022 76.0029 21.8627C76.2226 21.4233 76.3325 21.0937 76.3325 20.6542V18.8964H76.4423Z" fill="white"/>
<path d="M82.8144 8.67896V10.7663H80.8369V8.67896H82.8144ZM81.606 23.6203C81.9355 23.5104 82.1553 23.4005 82.2651 23.4005C82.375 23.4005 82.4849 23.1808 82.5947 23.0709C82.7046 22.9611 82.7046 22.7414 82.8144 22.5216C82.8144 22.3019 82.9243 21.8625 82.9243 21.3131V16.2595C82.9243 15.7102 82.9243 15.3806 82.9243 15.051C82.9243 14.7214 82.8144 14.5017 82.8144 14.2819C82.7046 14.0622 82.5947 13.9524 82.375 13.8425C82.1553 13.7326 81.9355 13.7326 81.606 13.6228V12.9636L84.3525 12.8537H85.0117V21.2033C85.0117 21.8625 85.0117 22.3019 85.1216 22.6315C85.2314 22.8512 85.3413 23.0709 85.4511 23.1808C85.6709 23.2907 85.8906 23.4005 86.33 23.5104V24.0597H81.8257V23.6203H81.606ZM86.6596 8.67896V10.7663H84.6821V8.67896H86.6596Z" fill="white"/>
<path d="M95.3393 24.1698V23.6205C95.7788 23.5107 96.1083 23.2909 96.3281 23.0712C96.5478 22.8515 96.5478 22.3022 96.5478 21.643V18.8964H91.4941V21.643C91.4941 22.3022 91.604 22.8515 91.7138 23.0712C91.9336 23.2909 92.2632 23.5107 92.7026 23.6205V24.1698H88.1982V23.6205C88.7476 23.5107 89.0771 23.2909 89.187 23.0712C89.4067 22.8515 89.4067 22.3022 89.4067 21.643V15.7104C89.4067 15.0513 89.2969 14.5019 89.187 14.2822C88.9673 14.0625 88.6377 13.8428 88.1982 13.7329V13.1836H92.7026V13.7329C92.2632 13.8428 91.9336 14.0625 91.7138 14.2822C91.4941 14.5019 91.4941 15.0513 91.4941 15.7104V17.9077H96.5478V15.7104C96.5478 14.9414 96.4379 14.3921 96.2182 14.1724C95.9985 13.9526 95.6689 13.7329 95.2294 13.7329V13.1836H99.7338V13.7329C99.1845 13.8428 98.8549 14.0625 98.745 14.2822C98.6352 14.5019 98.5253 15.0513 98.5253 15.7104V21.643C98.5253 22.3022 98.6352 22.8515 98.745 23.0712C98.9648 23.2909 99.2944 23.5107 99.7338 23.6205V24.1698H95.3393Z" fill="white"/>
<path d="M110.83 13.4031V15.82H109.401C109.291 15.2707 109.072 14.9411 108.962 14.6116C108.742 14.282 108.522 14.1721 108.303 13.9524C108.083 13.7327 107.753 13.7327 107.314 13.7327C106.765 13.7327 106.325 13.9524 105.886 14.282C105.446 14.6116 105.117 15.1609 104.897 15.82C104.677 16.4792 104.567 17.3581 104.567 18.4568C104.567 19.1159 104.567 19.6652 104.677 20.2146C104.787 20.7639 104.897 21.2033 105.117 21.6428C105.336 22.0822 105.666 22.3019 105.996 22.5217C106.325 22.7414 106.874 22.8513 107.424 22.8513C107.973 22.8513 108.413 22.7414 108.962 22.5217C109.511 22.3019 109.951 21.9724 110.39 21.423L111.049 22.1921C110.61 22.6315 110.28 22.9611 109.951 23.1808C109.621 23.4006 109.291 23.6203 108.962 23.7302C108.632 23.84 108.303 23.9499 107.973 24.0597C107.644 24.1696 107.314 24.1696 106.874 24.1696C105.446 24.1696 104.348 23.7302 103.469 22.7414C102.7 21.7526 102.26 20.3244 102.26 18.5666C102.26 17.468 102.48 16.3694 102.919 15.4905C103.359 14.6116 103.908 13.9524 104.787 13.4031C105.666 12.8538 106.435 12.634 107.534 12.634C108.193 12.634 108.742 12.634 109.291 12.7439C109.731 13.0735 110.28 13.1833 110.83 13.4031Z" fill="white"/>
<path d="M112.808 24.1698V23.6205C113.357 23.5107 113.687 23.2909 113.796 23.0712C114.016 22.8515 114.016 22.3022 114.016 21.643V15.7104C114.016 15.0513 113.906 14.5019 113.796 14.2822C113.577 14.0625 113.247 13.8428 112.808 13.7329V13.1836H117.312V13.7329C116.763 13.8428 116.433 14.0625 116.213 14.2822C115.994 14.6118 115.994 15.0513 115.994 15.7104V17.9077C116.873 17.7978 117.751 17.7978 118.52 17.7978C121.377 17.7978 122.805 18.8964 122.805 20.9838C122.805 22.0825 122.476 22.8515 121.706 23.4008C120.937 23.9501 119.729 24.2797 117.861 24.2797H112.808V24.1698ZM115.994 18.6767V23.1811C116.433 23.1811 116.982 23.1811 117.532 23.1811C118.85 23.1811 119.619 22.9614 120.059 22.6318C120.498 22.1923 120.718 21.643 120.718 20.874C120.718 19.3359 119.729 18.5669 117.861 18.5669C117.312 18.5669 116.653 18.5669 115.994 18.6767Z" fill="white"/>
<path d="M132.692 24.1698V23.6205L131.374 20.5444C131.044 19.7753 130.715 19.3359 130.385 19.1162C130.056 18.8964 129.616 18.7866 129.067 18.7866H128.188V21.2036C128.188 22.1923 128.298 22.7416 128.408 22.9614C128.627 23.1811 128.957 23.4008 129.396 23.5107V24.06H124.892V23.5107C125.441 23.4008 125.771 23.1811 125.881 22.8515C125.991 22.6318 126.101 21.9726 126.101 21.2036V15.6006C126.101 14.9414 125.991 14.3921 125.881 14.1724C125.661 13.9526 125.332 13.7329 124.892 13.623V13.0737H129.396V13.623C128.957 13.7329 128.627 13.9526 128.408 14.1724C128.188 14.3921 128.078 14.9414 128.078 15.6006V18.0175H128.957C129.506 18.0175 129.836 17.9077 130.165 17.5781C130.495 17.2485 130.825 16.5893 131.154 15.7104C131.594 14.7217 131.923 14.0625 132.363 13.623C132.802 13.1836 133.461 12.9639 134.56 12.9639C134.89 12.9639 135.219 12.9639 135.659 13.0737V15.3808H134.56C134.45 14.9414 134.23 14.6118 133.791 14.6118C133.461 14.6118 133.242 14.7217 133.022 14.8315C132.802 15.0513 132.582 15.3808 132.253 16.04C131.704 17.2485 131.154 18.0175 130.605 18.2373V18.3471C131.704 18.6767 132.582 19.3359 133.132 20.3247L134.011 22.0825C134.34 22.6318 134.56 22.9614 134.78 23.1811C134.999 23.4008 135.439 23.5107 135.878 23.6205V24.1698H132.692Z" fill="white"/>
<path d="M144.997 24.1698V23.6205C145.436 23.5107 145.766 23.2909 145.986 23.0712C146.206 22.8515 146.206 22.3022 146.206 21.643V16.6992L141.042 21.9726C141.042 22.5219 141.152 22.8515 141.262 23.0712C141.372 23.2909 141.701 23.5107 142.25 23.6205V24.1698H137.856V23.6205C138.405 23.5107 138.735 23.2909 138.845 23.0712C139.064 22.8515 139.064 22.3022 139.064 21.643V15.7104C139.064 15.0513 138.955 14.5019 138.845 14.2822C138.625 14.0625 138.295 13.8428 137.856 13.7329V13.1836H142.25V13.7329C141.811 13.8428 141.481 14.0625 141.262 14.2822C141.042 14.5019 141.042 15.0513 141.042 15.7104V20.5444L146.096 15.271C146.096 14.3921 145.656 13.8428 144.887 13.7329V13.1836H149.282V13.7329C148.842 13.8428 148.513 14.0625 148.293 14.2822C148.073 14.5019 148.073 15.0513 148.073 15.7104V21.643C148.073 22.3022 148.183 22.8515 148.293 23.0712C148.513 23.2909 148.842 23.5107 149.282 23.6205V24.1698H144.997Z" fill="white"/>
<path d="M158.95 24.1698V23.6205C159.389 23.5106 159.719 23.2909 159.938 23.0712C160.158 22.8515 160.158 22.3022 160.158 21.643V16.6992L154.995 21.9726C154.995 22.5219 155.104 22.8515 155.214 23.0712C155.324 23.2909 155.654 23.5106 156.203 23.6205V24.1698H151.809V23.6205C152.358 23.5106 152.688 23.2909 152.797 23.0712C153.017 22.8515 153.017 22.3022 153.017 21.643V15.7104C153.017 15.0512 152.907 14.5019 152.797 14.2822C152.578 14.0625 152.248 13.8427 151.809 13.7329V13.1836H156.203V13.7329C155.764 13.8427 155.434 14.0625 155.214 14.2822C154.995 14.5019 154.995 15.0512 154.995 15.7104V20.5444L160.048 15.2709C160.048 14.392 159.609 13.8427 158.84 13.7329V13.1836H163.234V13.7329C162.795 13.8427 162.465 14.0625 162.246 14.2822C162.026 14.5019 162.026 15.0512 162.026 15.7104V21.643C162.026 22.3022 162.136 22.8515 162.246 23.0712C162.465 23.2909 162.795 23.5106 163.234 23.6205V24.1698H158.95ZM161.367 8.34961C161.367 9.22851 161.037 9.88768 160.268 10.3271C159.499 10.7666 158.62 11.0962 157.521 11.0962C156.313 11.0962 155.434 10.8764 154.775 10.437C154.116 9.99754 153.786 9.33837 153.786 8.34961V7.91016H155.654V8.34961C155.654 9.00878 155.764 9.44823 156.093 9.77782C156.423 10.1074 156.862 10.2173 157.521 10.2173C158.29 10.2173 158.73 10.1074 159.06 9.77782C159.389 9.44823 159.499 9.00878 159.499 8.34961V7.91016H161.367V8.34961Z" fill="white"/>
<path d="M63.5884 32.5193C63.6982 32.5193 63.8081 32.4094 63.8081 32.4094C63.8081 32.4094 63.918 32.2995 63.918 32.1897C63.918 32.0798 63.918 31.9699 63.918 31.8601V29.2234C63.918 29.1135 63.918 29.0037 63.918 28.8938C63.918 28.7839 63.918 28.7839 63.918 28.7839C63.918 28.7839 63.918 28.6741 63.8081 28.6741C63.8081 28.6741 63.6982 28.6741 63.5884 28.5642V28.4543H65.2363C65.5659 28.4543 65.7856 28.4543 66.0054 28.5642C66.2251 28.6741 66.3349 28.7839 66.4448 28.8938C66.5547 29.0037 66.5547 29.2234 66.5547 29.4431C66.5547 29.6628 66.5547 29.7727 66.4448 29.8826C66.3349 29.9924 66.3349 30.1023 66.2251 30.2121C66.1152 30.322 66.0054 30.322 65.7856 30.4319C66.0054 30.5417 66.2251 30.6516 66.4448 30.7615C66.6645 30.8713 66.6645 31.091 66.6645 31.4206C66.6645 31.6404 66.5547 31.9699 66.4448 32.0798C66.3349 32.2995 66.1152 32.4094 65.8955 32.4094C65.6758 32.4094 65.456 32.5193 65.1265 32.5193H63.5884ZM65.0166 30.322C65.3462 30.322 65.5659 30.2121 65.6758 30.1023C65.7856 29.9924 65.8955 29.7727 65.8955 29.4431C65.8955 29.3332 65.8955 29.2234 65.7856 29.1135C65.7856 29.0037 65.6758 29.0037 65.5659 28.8938C65.456 28.8938 65.3462 28.7839 65.2363 28.7839C65.1265 28.7839 65.0166 28.7839 64.9067 28.7839C64.7969 28.7839 64.687 28.7839 64.5771 28.7839C64.4673 28.7839 64.3574 28.7839 64.2476 28.7839V30.322H65.0166ZM64.4673 32.2995C64.5771 32.2995 64.7969 32.2995 64.9067 32.2995C65.1265 32.2995 65.3462 32.2995 65.5659 32.1897C65.6758 32.0798 65.7856 32.0798 65.8955 31.8601C66.0054 31.7502 66.0054 31.5305 66.0054 31.4206C66.0054 31.2009 66.0054 31.091 65.8955 30.9812C65.7856 30.8713 65.6758 30.7615 65.5659 30.6516C65.456 30.5417 65.2363 30.5417 64.9067 30.5417H64.4673V32.2995Z" fill="white"/>
<path d="M70.73 31.8601C70.73 31.9699 70.73 32.0798 70.73 32.1897C70.73 32.2995 70.73 32.2995 70.73 32.2995C70.73 32.2995 70.73 32.4094 70.8398 32.4094C70.8398 32.4094 70.9497 32.4094 71.0596 32.5193V32.6291H69.7412V32.5193C69.8511 32.5193 69.9609 32.4094 69.9609 32.4094C69.9609 32.4094 70.0708 32.2995 70.0708 32.1897C70.0708 32.0798 70.0708 31.9699 70.0708 31.8601V29.2234C70.0708 29.1135 70.0708 29.0037 70.0708 28.8938C70.0708 28.7839 70.0708 28.7839 70.0708 28.7839C70.0708 28.7839 70.0708 28.6741 69.9609 28.6741C69.9609 28.6741 69.8511 28.6741 69.7412 28.5642V28.4543H71.0596V28.6741C70.9497 28.6741 70.9497 28.6741 70.8398 28.7839C70.8398 28.7839 70.73 28.7839 70.73 28.8938V29.0037C70.73 29.1135 70.73 29.2234 70.73 29.3332V31.8601Z" fill="white"/>
<path d="M76.6621 32.5193C76.772 32.5193 76.8818 32.4094 76.9917 32.4094C77.1015 32.4094 77.1015 32.1897 77.1015 31.9699V30.6516C77.1015 30.2121 77.1015 29.9924 77.1015 29.8826L75.3437 31.9699C75.3437 32.1897 75.3437 32.4094 75.4536 32.4094C75.5635 32.4094 75.5635 32.5193 75.7832 32.5193V32.6291H74.5747V32.5193C74.6846 32.5193 74.7944 32.4094 74.9043 32.4094C75.0142 32.4094 75.0142 32.1897 75.0142 31.9699V29.3332C75.0142 29.1135 75.0142 28.8938 74.9043 28.8938C74.9043 28.8938 74.7944 28.7839 74.5747 28.7839V28.6741H75.7832C75.6733 28.6741 75.5635 28.7839 75.4536 28.7839C75.4536 28.8938 75.3437 29.0036 75.3437 29.2234V30.5417C75.3437 30.8713 75.3437 31.091 75.3437 31.3108L77.1015 29.2234C77.1015 29.0036 77.1015 28.8938 76.9917 28.7839C76.9917 28.6741 76.8818 28.6741 76.6621 28.6741V28.5642H77.8706V28.6741C77.7607 28.6741 77.6509 28.7839 77.541 28.7839C77.541 28.8938 77.4311 29.0036 77.4311 29.2234V31.8601C77.4311 32.0798 77.4311 32.2995 77.541 32.2995C77.6509 32.2995 77.6509 32.4094 77.8706 32.4094V32.5193H76.6621ZM77.1015 27.3557C77.1015 27.5754 76.9917 27.7952 76.772 27.905C76.5522 28.0149 76.3325 28.1247 76.0029 28.1247C75.6733 28.1247 75.4536 28.0149 75.2339 27.905C75.0142 27.7952 75.0142 27.5754 75.0142 27.3557V27.2458H75.5635V27.3557C75.5635 27.5754 75.5635 27.6853 75.6733 27.6853C75.7832 27.7952 75.8931 27.7952 76.0029 27.7952C76.2226 27.7952 76.3325 27.7952 76.3325 27.6853C76.4424 27.5754 76.4424 27.4656 76.4424 27.3557V27.2458H76.9917V27.3557H77.1015Z" fill="white"/>
<path d="M83.9126 28.5642V29.4431H83.583C83.583 29.2234 83.4731 29.1135 83.3633 29.0037C83.2534 28.8938 83.2534 28.7839 83.1435 28.7839C83.0337 28.7839 82.9238 28.6741 82.814 28.6741C82.5942 28.6741 82.3745 28.7839 82.2646 28.8938C82.1548 29.0037 81.9351 29.2234 81.9351 29.553C81.9351 29.8826 81.8252 30.2121 81.8252 30.5417C81.8252 30.9812 81.8252 31.3108 81.9351 31.5305C82.0449 31.7502 82.1548 31.9699 82.2646 32.1897C82.3745 32.2995 82.5942 32.4094 82.814 32.4094C82.9238 32.4094 83.1435 32.4094 83.2534 32.2995C83.3633 32.1897 83.4731 32.1897 83.4731 32.0798C83.583 31.9699 83.583 31.8601 83.6928 31.6404H84.0224V32.5193C83.8027 32.5193 83.6929 32.6291 83.4731 32.6291C83.2534 32.6291 83.0337 32.6291 82.814 32.6291C82.2646 32.6291 81.9351 32.4094 81.6055 32.0798C81.3857 31.7502 81.166 31.2009 81.166 30.5417C81.166 30.1023 81.2759 29.7727 81.3857 29.4431C81.4956 29.1135 81.7153 28.8938 81.9351 28.6741C82.1548 28.4543 82.4844 28.4543 82.9238 28.4543C83.1435 28.4543 83.2534 28.4543 83.4731 28.4543C83.6929 28.4543 83.6929 28.5642 83.9126 28.5642Z" fill="white"/>
<path d="M87.0991 32.6291V32.5193C87.209 32.5193 87.3188 32.4094 87.4287 32.4094C87.5386 32.4094 87.5386 32.1897 87.5386 31.9699V29.3332C87.5386 29.1135 87.5386 28.8938 87.4287 28.8938C87.4287 28.8938 87.3188 28.7839 87.0991 28.7839V28.6741H88.4175C88.3076 28.6741 88.1977 28.7839 88.0879 28.8938C88.0879 29.0037 87.978 29.1135 87.978 29.3332V30.322C88.3076 30.322 88.5273 30.322 88.7471 30.322C89.626 30.322 90.0654 30.6516 90.0654 31.4206C90.0654 32.1897 89.5161 32.6291 88.5273 32.6291H87.0991ZM87.978 30.5417V32.2995C88.0879 32.2995 88.3076 32.2995 88.5273 32.2995C88.8569 32.2995 89.1865 32.1897 89.2964 32.0798C89.4062 31.9699 89.5161 31.7502 89.5161 31.4206C89.5161 30.8713 89.1865 30.5417 88.6372 30.5417C88.3076 30.5417 88.0879 30.5417 87.978 30.5417Z" fill="white"/>
<path d="M95.6684 32.6291V32.5193C95.6684 32.2995 95.5586 32.0798 95.5586 31.9699L95.3389 31.3108C95.229 31.091 95.229 30.9812 95.1191 30.8713C95.0093 30.7615 95.0093 30.7615 94.8994 30.6516C94.7895 30.6516 94.6797 30.5417 94.5698 30.5417H94.2402V31.7502C94.2402 31.9699 94.2402 32.1897 94.3501 32.1897C94.3501 32.2995 94.46 32.2995 94.6797 32.2995V32.4094H93.3613V32.2995C93.4712 32.2995 93.5811 32.1897 93.6909 32.1897C93.6909 32.1897 93.8008 31.9699 93.8008 31.7502V29.1135C93.8008 28.8938 93.8008 28.6741 93.6909 28.6741C93.6909 28.6741 93.5811 28.5642 93.3613 28.5642V28.4543H94.46V28.6741C94.3501 28.6741 94.2402 28.7839 94.1304 28.7839C94.1304 28.8938 94.0205 29.0037 94.0205 29.2234V30.322H94.46C94.5698 30.322 94.7895 30.322 94.7895 30.2121C94.7895 30.1023 95.0093 29.8826 95.1191 29.4431C95.229 29.1135 95.3389 28.7839 95.5586 28.6741C95.6684 28.5642 95.8882 28.4543 96.2178 28.4543C96.3276 28.4543 96.4375 28.4543 96.5473 28.5642V29.2234H96.2178C96.2178 29.0037 96.1079 28.8938 95.998 28.8938C95.8882 28.8938 95.7783 28.8938 95.7783 29.0037C95.6684 29.1135 95.6684 29.3332 95.5586 29.553C95.4487 29.7727 95.3389 29.9924 95.3389 30.1023C95.229 30.2121 95.229 30.322 95.0093 30.4319C95.3389 30.5417 95.5586 30.7615 95.7783 31.2009L95.998 31.8601C96.1079 32.0798 96.2178 32.2995 96.2178 32.2995C96.2178 32.2995 96.4375 32.4094 96.5473 32.5193V32.6291H95.6684Z" fill="white"/>
<path d="M101.162 32.6291C100.942 32.6291 100.722 32.6291 100.502 32.5193C100.283 32.4094 100.173 32.2995 99.9531 32.1897C99.7334 32.0798 99.7334 31.8601 99.6235 31.5305C99.5137 31.2009 99.5137 30.9812 99.5137 30.5417C99.5137 30.1023 99.6235 29.6628 99.7334 29.4431C99.8433 29.1135 100.063 28.8938 100.283 28.6741C100.502 28.4543 100.832 28.4543 101.162 28.4543C101.491 28.4543 101.821 28.5642 102.041 28.6741C102.26 28.7839 102.48 29.1135 102.59 29.3332C102.7 29.6628 102.81 29.9924 102.81 30.4319C102.81 30.8713 102.7 31.3108 102.59 31.6404C102.48 31.9699 102.26 32.1897 102.041 32.4094C101.821 32.6291 101.601 32.6291 101.162 32.6291ZM100.173 30.5417C100.173 31.2009 100.283 31.6404 100.393 31.9699C100.502 32.2995 100.832 32.4094 101.162 32.4094C101.381 32.4094 101.601 32.2995 101.711 32.1897C101.821 32.0798 101.931 31.8601 102.041 31.5305C102.15 31.3108 102.15 30.9812 102.15 30.5417C102.15 30.1023 102.15 29.7727 102.041 29.4431C101.931 29.1135 101.821 28.8938 101.711 28.7839C101.601 28.6741 101.381 28.5642 101.162 28.5642C100.942 28.5642 100.832 28.5642 100.722 28.6741C100.612 28.7839 100.502 28.8938 100.393 29.0037C100.283 29.1135 100.283 29.3332 100.173 29.553C100.283 29.9924 100.173 30.2121 100.173 30.5417Z" fill="white"/>
<path d="M106.105 32.5193C106.215 32.5193 106.325 32.4094 106.325 32.4094C106.325 32.4094 106.435 32.2995 106.435 32.1897C106.435 32.0798 106.435 31.9699 106.435 31.8601V29.2234C106.435 29.1135 106.435 29.0037 106.435 28.8938C106.435 28.7839 106.435 28.7839 106.435 28.7839C106.435 28.7839 106.435 28.6741 106.325 28.6741C106.325 28.6741 106.215 28.6741 106.105 28.5642V28.4543H107.753C108.083 28.4543 108.303 28.4543 108.522 28.5642C108.742 28.6741 108.852 28.7839 108.962 28.8938C109.072 29.0037 109.072 29.2234 109.072 29.4431C109.072 29.6628 109.072 29.7727 108.962 29.8826C108.852 29.9924 108.852 30.1023 108.742 30.2121C108.632 30.322 108.522 30.322 108.303 30.4319C108.522 30.5417 108.742 30.6516 108.962 30.7615C109.182 30.8713 109.182 31.091 109.182 31.4206C109.182 31.6404 109.072 31.9699 108.962 32.0798C108.852 32.2995 108.632 32.4094 108.413 32.4094C108.193 32.4094 107.973 32.5193 107.644 32.5193H106.105ZM107.534 30.322C107.863 30.322 108.083 30.2121 108.193 30.1023C108.303 29.9924 108.413 29.7727 108.413 29.4431C108.413 29.3332 108.413 29.2234 108.303 29.1135C108.303 29.0037 108.193 29.0037 108.083 28.8938C107.973 28.8938 107.863 28.7839 107.753 28.7839C107.644 28.7839 107.534 28.7839 107.424 28.7839C107.314 28.7839 107.204 28.7839 107.094 28.7839C106.984 28.7839 106.875 28.7839 106.765 28.7839V30.322H107.534ZM107.094 32.2995C107.204 32.2995 107.424 32.2995 107.534 32.2995C107.753 32.2995 107.973 32.2995 108.193 32.1897C108.303 32.0798 108.413 32.0798 108.522 31.8601C108.632 31.7502 108.632 31.5305 108.632 31.4206C108.632 31.2009 108.632 31.091 108.522 30.9812C108.413 30.8713 108.303 30.7615 108.193 30.6516C108.083 30.5417 107.863 30.5417 107.534 30.5417H107.094V32.2995Z" fill="white"/>
<path d="M114.674 32.5193C114.784 32.5193 114.894 32.4094 115.004 32.4094C115.114 32.4094 115.114 32.1897 115.114 31.9699V30.6516C115.114 30.2121 115.114 29.9924 115.114 29.8826L113.356 31.9699C113.356 32.1897 113.356 32.4094 113.466 32.4094C113.576 32.4094 113.576 32.5193 113.795 32.5193V32.6291H112.587V32.5193C112.697 32.5193 112.807 32.4094 112.917 32.4094C113.026 32.4094 113.026 32.1897 113.026 31.9699V29.3332C113.026 29.1135 113.026 28.8938 112.917 28.8938C112.917 28.8938 112.807 28.7839 112.587 28.7839V28.6741H113.795C113.686 28.6741 113.576 28.7839 113.466 28.7839C113.466 28.8938 113.356 29.0037 113.356 29.2234V30.5417C113.356 30.8713 113.356 31.091 113.356 31.3108L115.114 29.2234C115.114 29.0037 115.114 28.8938 115.004 28.7839C115.004 28.6741 114.894 28.6741 114.674 28.6741V28.5642H115.883V28.6741C115.773 28.6741 115.663 28.7839 115.553 28.7839C115.553 28.8938 115.443 29.0037 115.443 29.2234V31.8601C115.443 32.0798 115.443 32.2995 115.553 32.2995C115.663 32.2995 115.663 32.4094 115.883 32.4094V32.5193H114.674Z" fill="white"/>
<path d="M121.376 32.5193C121.486 32.5193 121.596 32.4094 121.706 32.4094C121.816 32.4094 121.816 32.1897 121.816 31.9699V30.6516C121.816 30.2121 121.816 29.9924 121.816 29.8826L120.058 31.9699C120.058 32.1897 120.058 32.4094 120.168 32.4094C120.278 32.4094 120.278 32.5193 120.498 32.5193V32.6291H119.289V32.5193C119.399 32.5193 119.509 32.4094 119.619 32.4094C119.729 32.4094 119.729 32.1897 119.729 31.9699V29.3332C119.729 29.1135 119.729 28.8938 119.619 28.8938C119.619 28.8938 119.509 28.7839 119.289 28.7839V28.6741H120.498C120.388 28.6741 120.278 28.7839 120.168 28.7839C120.168 28.8938 120.058 29.0036 120.058 29.2234V30.5417C120.058 30.8713 120.058 31.091 120.058 31.3108L121.816 29.2234C121.816 29.0036 121.816 28.8938 121.706 28.7839C121.706 28.6741 121.596 28.6741 121.376 28.6741V28.5642H122.585V28.6741C122.475 28.6741 122.365 28.7839 122.255 28.7839C122.255 28.8938 122.145 29.0036 122.145 29.2234V31.8601C122.145 32.0798 122.145 32.2995 122.255 32.2995C122.365 32.2995 122.365 32.4094 122.585 32.4094V32.5193H121.376ZM121.926 27.3557C121.926 27.5754 121.816 27.7952 121.596 27.905C121.376 28.0149 121.157 28.1247 120.827 28.1247C120.498 28.1247 120.278 28.0149 120.058 27.905C119.838 27.7952 119.838 27.5754 119.838 27.3557V27.2458H120.388V27.3557C120.388 27.5754 120.388 27.6853 120.498 27.6853C120.607 27.7952 120.717 27.7952 120.827 27.7952C121.047 27.7952 121.157 27.7952 121.157 27.6853C121.267 27.5754 121.267 27.4656 121.267 27.3557V27.2458H121.816V27.3557H121.926Z" fill="white"/>
<path d="M129.726 32.5193C129.835 32.5193 129.945 32.4094 129.945 32.4094C129.945 32.4094 130.055 32.2995 130.055 32.1897C130.055 32.0798 130.055 31.9699 130.055 31.8601V29.2234C130.055 29.1135 130.055 29.0037 130.055 28.8938C130.055 28.7839 130.055 28.7839 130.055 28.7839C130.055 28.7839 130.055 28.6741 129.945 28.6741C129.945 28.6741 129.835 28.6741 129.726 28.5642V28.4543H131.374C131.703 28.4543 131.923 28.4543 132.143 28.5642C132.362 28.6741 132.472 28.7839 132.582 28.8938C132.692 29.0037 132.692 29.2234 132.692 29.4431C132.692 29.6628 132.692 29.7727 132.582 29.8826C132.472 29.9924 132.472 30.1023 132.362 30.2121C132.252 30.322 132.143 30.322 131.923 30.4319C132.143 30.5417 132.362 30.6516 132.582 30.7615C132.802 30.8713 132.802 31.091 132.802 31.4206C132.802 31.6404 132.692 31.9699 132.582 32.0798C132.472 32.2995 132.252 32.4094 132.033 32.4094C131.813 32.4094 131.593 32.5193 131.264 32.5193H129.726ZM131.154 30.322C131.483 30.322 131.703 30.2121 131.813 30.1023C131.923 29.9924 132.033 29.7727 132.033 29.4431C132.033 29.3332 132.033 29.2234 131.923 29.1135C131.923 29.0037 131.813 29.0037 131.703 28.8938C131.593 28.8938 131.483 28.7839 131.374 28.7839C131.264 28.7839 131.154 28.7839 131.044 28.7839C130.934 28.7839 130.824 28.7839 130.714 28.7839C130.604 28.7839 130.495 28.7839 130.385 28.7839V30.322H131.154ZM130.604 32.2995C130.714 32.2995 130.934 32.2995 131.044 32.2995C131.264 32.2995 131.483 32.2995 131.703 32.1897C131.813 32.0798 131.923 32.0798 132.033 31.8601C132.143 31.7502 132.143 31.5305 132.143 31.4206C132.143 31.2009 132.143 31.091 132.033 30.9812C131.923 30.8713 131.813 30.7615 131.703 30.6516C131.593 30.5417 131.374 30.5417 131.044 30.5417H130.604V32.2995Z" fill="white"/>
<path d="M136.867 31.8601C136.867 31.9699 136.867 32.0798 136.867 32.1897C136.867 32.2995 136.867 32.2995 136.867 32.2995C136.867 32.2995 136.867 32.4094 136.977 32.4094C136.977 32.4094 137.086 32.4094 137.196 32.5193V32.6291H135.878V32.5193C135.988 32.5193 136.098 32.4094 136.098 32.4094C136.098 32.4094 136.208 32.2995 136.208 32.1897C136.208 32.0798 136.208 31.9699 136.208 31.8601V29.2234C136.208 29.1135 136.208 29.0037 136.208 28.8938C136.208 28.7839 136.208 28.7839 136.208 28.7839C136.208 28.7839 136.208 28.6741 136.098 28.6741C136.098 28.6741 135.988 28.6741 135.878 28.5642V28.4543H137.196V28.6741C137.086 28.6741 137.086 28.6741 136.977 28.7839C136.977 28.7839 136.867 28.7839 136.867 28.8938V29.0037C136.867 29.1135 136.867 29.2234 136.867 29.3332V31.8601Z" fill="white"/>
<path d="M143.239 28.5642V29.4431H142.909C142.909 29.2234 142.799 29.1135 142.689 29.0037C142.58 28.8938 142.58 28.7839 142.47 28.7839C142.36 28.7839 142.25 28.6741 142.14 28.6741C141.92 28.6741 141.701 28.7839 141.591 28.8938C141.481 29.0037 141.261 29.2234 141.261 29.553C141.261 29.8826 141.151 30.2121 141.151 30.5417C141.151 30.9812 141.151 31.3108 141.261 31.5305C141.371 31.7502 141.481 31.9699 141.591 32.1897C141.701 32.2995 141.92 32.4094 142.14 32.4094C142.25 32.4094 142.47 32.4094 142.58 32.2995C142.689 32.1897 142.799 32.1897 142.799 32.0798C142.909 31.9699 142.909 31.8601 143.019 31.6404H143.349V32.5193C143.129 32.5193 143.019 32.6291 142.799 32.6291C142.58 32.6291 142.36 32.6291 142.14 32.6291C141.591 32.6291 141.261 32.4094 140.932 32.0798C140.712 31.7502 140.492 31.2009 140.492 30.5417C140.492 30.1023 140.602 29.7727 140.712 29.4431C140.822 29.1135 141.042 28.8938 141.261 28.6741C141.481 28.4543 141.811 28.4543 142.25 28.4543C142.47 28.4543 142.58 28.4543 142.799 28.4543C143.019 28.4543 143.019 28.5642 143.239 28.5642Z" fill="white"/>
<path d="M149.61 31.8601C149.61 31.9699 149.61 32.0798 149.61 32.0798C149.61 32.1897 149.61 32.1897 149.61 32.1897V32.2995C149.61 32.2995 149.61 32.2995 149.72 32.4094C149.83 32.5193 149.83 32.4094 149.94 32.5193V32.6291H148.731V32.5193C148.841 32.5193 148.951 32.4094 148.951 32.4094L149.061 32.2995C149.061 32.1897 149.061 32.0798 149.061 31.9699V30.7615H147.413V31.9699C147.413 32.0798 147.413 32.1897 147.413 32.2995C147.413 32.4094 147.413 32.4094 147.413 32.4094C147.413 32.4094 147.413 32.5193 147.523 32.5193C147.523 32.5193 147.633 32.5193 147.743 32.6291V32.739H146.424V32.6291C146.534 32.6291 146.644 32.5193 146.644 32.5193C146.644 32.5193 146.754 32.4094 146.754 32.2995C146.754 32.1897 146.754 32.0798 146.754 31.9699V29.3332C146.754 29.2234 146.754 29.1135 146.754 29.0037C146.754 28.8938 146.754 28.8938 146.754 28.8938C146.754 28.8938 146.754 28.7839 146.644 28.7839C146.644 28.7839 146.534 28.7839 146.424 28.6741V28.5642H147.743V28.6741C147.633 28.6741 147.633 28.6741 147.523 28.7839C147.523 28.7839 147.413 28.7839 147.413 28.8938V29.0037C147.413 29.1135 147.413 29.2234 147.413 29.3332V30.4319H149.061V29.3332C149.061 29.1135 149.061 29.0037 149.061 29.0037C149.061 28.8938 149.061 28.8938 148.951 28.8938C148.951 28.8938 148.841 28.7839 148.731 28.7839V28.6741H149.94C149.83 28.6741 149.72 28.7839 149.72 28.7839L149.61 28.8938C149.61 29.0037 149.61 29.1135 149.61 29.2234V31.8601Z" fill="white"/>
<path d="M155.434 32.5193C155.543 32.5193 155.653 32.4094 155.763 32.4094C155.873 32.4094 155.873 32.1897 155.873 31.9699V30.6516C155.873 30.2121 155.873 29.9924 155.873 29.8826L154.115 31.9699C154.115 32.1897 154.115 32.4094 154.225 32.4094C154.335 32.4094 154.335 32.5193 154.555 32.5193V32.6291H153.346V32.5193C153.456 32.5193 153.566 32.4094 153.676 32.4094C153.786 32.4094 153.786 32.1897 153.786 31.9699V29.3332C153.786 29.1135 153.786 28.8938 153.676 28.8938C153.676 28.8938 153.566 28.7839 153.346 28.7839V28.6741H154.555C154.445 28.6741 154.335 28.7839 154.225 28.7839C154.225 28.8938 154.115 29.0037 154.115 29.2234V30.5417C154.115 30.8713 154.115 31.091 154.115 31.3108L155.873 29.2234C155.873 29.0037 155.873 28.8938 155.763 28.7839C155.763 28.6741 155.653 28.6741 155.434 28.6741V28.5642H156.642V28.6741C156.532 28.6741 156.422 28.7839 156.312 28.7839C156.312 28.8938 156.203 29.0037 156.203 29.2234V31.8601C156.203 32.0798 156.203 32.2995 156.312 32.2995C156.422 32.2995 156.422 32.4094 156.642 32.4094V32.5193H155.434Z" fill="white"/>
<path d="M162.464 32.6291V32.5193C162.354 32.2995 162.354 32.1897 162.245 31.9699L162.025 31.3108C161.915 31.091 161.915 30.9812 161.805 30.8713C161.695 30.7615 161.695 30.7615 161.585 30.6516C161.476 30.6516 161.366 30.5417 161.256 30.5417H160.926V31.7502C160.926 31.9699 160.926 32.1897 161.036 32.1897C161.036 32.2995 161.146 32.2995 161.366 32.2995V32.4094H160.047V32.2995C160.157 32.2995 160.267 32.1897 160.377 32.1897C160.377 32.1897 160.487 31.9699 160.487 31.7502V29.1135C160.487 28.8938 160.487 28.6741 160.377 28.6741C160.377 28.6741 160.267 28.5642 160.047 28.5642V28.4543H161.366V28.6741C161.256 28.6741 161.146 28.7839 161.036 28.7839C161.036 28.8938 160.926 29.0037 160.926 29.2234V30.322H161.256C161.366 30.322 161.585 30.322 161.585 30.2121C161.585 30.1023 161.805 29.8826 161.915 29.4431C162.025 29.1135 162.135 28.7839 162.354 28.6741C162.464 28.5642 162.684 28.4543 163.014 28.4543C163.124 28.4543 163.233 28.4543 163.343 28.5642V29.2234H163.014C163.014 29.0037 162.904 28.8938 162.794 28.8938C162.684 28.8938 162.574 28.8938 162.574 29.0037C162.464 29.1135 162.464 29.3332 162.354 29.553C162.245 29.7727 162.135 29.9924 162.135 30.1023C162.025 30.2121 162.025 30.322 161.805 30.4319C162.135 30.5417 162.354 30.7615 162.574 31.2009L162.794 31.8601C162.904 32.0798 163.014 32.2995 163.014 32.2995C163.014 32.2995 163.233 32.4094 163.343 32.5193V32.6291H162.464Z" fill="white"/>
</svg>
