<svg width="259" height="52" viewBox="0 0 259 52" fill="none" xmlns="http://www.w3.org/2000/svg">
<path d="M20.6122 11.2526C19.9183 11.2526 19.0508 11.2526 18.3567 11.2526C18.3567 7.96337 18.3567 4.50104 18.3567 1.21182C19.2242 1.73117 19.9183 2.59675 20.2652 3.63545C20.4388 3.98169 20.4388 4.32791 20.4388 4.67415C20.4388 4.84727 20.4388 5.02038 20.4388 5.19351C20.4388 5.36662 20.4388 5.53973 20.4388 5.71285C20.4388 5.88597 20.4388 6.05909 20.4388 6.40531C20.4388 6.57844 20.4388 6.75155 20.4388 6.92467C20.4388 7.09778 20.4388 7.27091 20.4388 7.44402C20.4388 7.44402 20.4388 7.44402 20.2652 7.44402C20.0918 7.44402 20.0918 7.44402 19.9183 7.44402C19.5713 7.61713 19.3977 7.79025 19.3977 8.13649C19.3977 8.48273 19.5713 8.82895 19.9183 8.82895C20.0918 8.82895 20.2652 8.82895 20.2652 8.82895C20.4388 8.65584 20.4388 8.48273 20.6122 8.13649C20.7858 7.96337 20.7858 7.79025 20.7858 7.44402C20.9593 7.09778 21.1327 6.57844 21.1327 6.05909C21.1327 5.88597 21.1327 5.53973 21.3063 5.36662C21.3063 5.02038 21.3063 4.67415 21.3063 4.32791C21.3063 3.98169 21.3063 3.63545 21.3063 3.46233C21.3063 3.11611 21.3063 2.94298 21.3063 2.59675C21.3063 2.25051 21.3063 1.73117 21.3063 1.38493C21.3063 0.865584 21.4799 0.519351 21.8268 0C22.0002 0.346233 22.1738 0.692467 22.3473 1.0387C22.3473 1.21182 22.3473 1.38493 22.3473 1.38493C22.3473 1.55805 22.3473 1.73117 22.3473 1.90429C22.3473 2.25051 22.3473 2.42364 22.3473 2.76987C22.3473 2.94298 22.3473 3.11611 22.3473 3.11611C22.3473 3.46233 22.3473 3.63545 22.3473 3.98169C22.3473 4.1548 22.3473 4.32791 22.3473 4.67415C22.3473 4.84727 22.3473 5.02038 22.3473 5.19351C22.3473 5.53973 22.3473 5.71285 22.5207 6.05909C22.6943 6.57844 22.8679 7.27091 23.0413 7.79025C23.0413 7.96337 23.2148 8.13649 23.3882 8.3096C23.3882 8.3096 23.3882 8.48273 23.5618 8.48273H23.7354H23.9088C24.2559 8.48273 24.4293 8.13649 24.4293 7.79025C24.4293 7.44402 24.2559 7.27091 23.9088 7.09778H23.7354C23.7354 7.09778 23.7354 7.09778 23.5618 7.09778V6.92467C23.5618 6.75155 23.5618 6.40531 23.7354 6.2322C23.7354 6.05909 23.7354 5.71285 23.7354 5.53973C23.7354 5.36662 23.7354 5.02038 23.9088 4.84727C23.9088 4.67415 23.9088 4.50104 23.9088 4.1548C23.9088 3.63545 24.0823 3.28922 24.2559 2.76987C24.6029 1.90429 25.2968 1.38493 25.9909 0.865584C25.9909 4.1548 25.9909 7.61713 25.9909 10.9064C25.2968 10.9064 24.4293 10.9064 23.7354 10.9064V11.0795C23.5618 11.9451 23.0413 12.6375 22.3473 13.1569L22.1738 13.33L22.0002 13.5031C22.5207 14.0225 22.5207 14.0225 22.5207 14.0225C22.3473 13.8493 22.3473 13.6762 22.1738 13.6762C21.8268 13.33 21.4799 12.9838 21.1327 12.4644C20.9593 12.1182 20.7858 11.7719 20.6122 11.2526ZM20.0918 6.92467C20.0918 6.57844 20.0918 6.40531 19.9183 6.2322C19.9183 6.05909 19.9183 5.88597 19.9183 5.53973C19.9183 5.36662 19.9183 5.02038 19.7447 4.84727C19.7447 4.67415 19.7447 4.50104 19.7447 4.32791C19.7447 3.63545 19.3977 3.11611 19.0508 2.76987C19.0508 4.50104 19.0508 6.2322 19.0508 7.96337C19.2242 7.96337 19.3977 7.96337 19.3977 7.96337C19.5713 7.44402 19.7447 7.09778 20.0918 6.92467ZM25.9909 2.59675C25.9909 2.76987 25.9909 2.76987 25.9909 2.59675C25.4703 3.11611 25.2968 3.80857 25.1234 4.50104C25.1234 4.67415 25.1234 4.84727 25.1234 5.19351C25.1234 5.36662 25.1234 5.71285 24.9498 5.88597C24.9498 6.05909 24.9498 6.2322 24.9498 6.57844C24.9498 6.75155 24.9498 6.75155 24.9498 6.92467C25.2968 7.09778 25.6439 7.44402 25.6439 7.79025C25.8173 7.79025 25.8173 7.79025 25.9909 7.79025C25.9909 6.05909 25.9909 4.32791 25.9909 2.59675ZM19.3977 8.48273C19.2242 8.48273 19.2242 8.48273 19.0508 8.48273C19.0508 9.17519 19.0508 9.86766 19.0508 10.5601C19.5713 10.5601 20.0918 10.5601 20.6122 10.5601C20.6122 10.2139 20.6122 9.86766 20.7858 9.52142C20.6122 9.52142 20.6122 9.52142 20.4388 9.52142C19.9183 9.34831 19.5713 9.00207 19.3977 8.48273ZM24.4293 10.5601C24.9498 10.5601 25.4703 10.5601 25.9909 10.5601C25.9909 10.387 25.9909 8.48273 25.9909 8.48273C25.8173 8.48273 25.8173 8.48273 25.6439 8.48273C25.4703 9.00207 25.1234 9.34831 24.6029 9.34831H24.4293C24.4293 9.52142 24.4293 9.69453 24.6029 9.86766C24.4293 10.2139 24.4293 10.387 24.4293 10.5601ZM23.2148 9.00207C22.8679 8.48273 22.6943 7.96338 22.5207 7.27091C22.3473 7.79025 22.0002 8.48273 21.8268 9.00207C22.1738 9.1752 22.3473 9.34831 22.5207 9.52142C22.6943 9.34831 23.0413 9.1752 23.2148 9.00207ZM22.1738 11.2526C21.8268 11.2526 21.6533 11.2526 21.3063 11.2526C21.3063 11.5988 21.4799 11.7719 21.6533 11.9451C21.8268 12.1182 22.0002 12.4644 22.1738 12.6375C22.1738 12.2913 22.1738 11.7719 22.1738 11.2526ZM23.5618 11.2526C23.2148 11.2526 23.0413 11.2526 22.6943 11.2526C22.6943 11.7719 22.6943 12.1182 22.6943 12.6375C23.2148 12.2913 23.5618 11.7719 23.5618 11.2526ZM22.1738 10.5601C22.1738 10.2139 21.8268 9.69453 21.4799 9.69453C21.4799 10.0408 21.3063 10.2139 21.3063 10.5601C21.6533 10.5601 21.8268 10.5601 22.1738 10.5601ZM22.8679 10.5601C23.2148 10.5601 23.3882 10.5601 23.7354 10.5601C23.7354 10.2139 23.7354 10.0408 23.5618 9.69453C23.0413 9.86766 22.8679 10.2139 22.8679 10.5601Z" fill="white"/>
<path d="M32.9307 21.64L33.4513 21.1207C34.1454 21.4669 34.8393 21.64 35.5334 21.8132L36.7478 25.2755L37.4418 21.8132C38.3094 21.64 39.1769 21.1207 39.8708 20.6013L42.1264 21.64L40.9119 19.2164C41.6058 18.3508 41.9529 17.3121 41.9529 16.2735L45.0759 14.7154L41.6058 14.196C41.4324 13.5035 41.0855 12.9842 40.7383 12.4648L42.4735 9.34873L39.5239 11.253C39.0033 10.9068 38.3094 10.5606 37.7889 10.3874H37.9623L37.4418 6.92511L35.8803 10.2143H36.0537C35.0128 10.2143 33.9718 10.5606 33.1043 11.253L30.8488 9.86809L31.8897 12.2917C31.1958 12.9842 30.8488 13.8498 30.5017 14.7154V14.5422L26.8581 15.2347L30.3283 16.4465V16.2735C30.3283 16.9659 30.5017 17.4852 30.6752 18.1776C30.6752 18.1776 30.6752 18.1776 30.5017 18.1776L29.8077 18.8702C29.6342 19.0433 29.6342 19.2164 29.8077 19.3895C29.6342 19.2164 29.4608 19.2164 29.2872 19.3895L28.9402 19.7357C28.7667 19.9089 28.7667 20.0819 28.9402 20.2551L29.2872 20.6013L21.8266 27.6991L19.7446 25.6217L22.0002 23.3712C22.3471 23.025 22.3471 22.5056 22.0002 22.1594L16.6215 16.4465C16.2745 16.1003 15.754 16.1003 15.407 16.4465L13.325 18.524L12.8045 18.0046C13.325 16.2735 13.1515 14.3691 12.284 12.8111L12.4575 12.638C12.8045 12.2917 12.8045 11.7724 12.4575 11.4261L11.0695 10.0412C10.7225 9.69498 10.2019 9.69498 9.85493 10.0412L9.68143 10.2143C7.25241 8.82938 3.95586 9.17562 1.87383 11.4261C-0.208203 13.5035 -0.555208 16.6197 0.832811 19.2164L0.659309 19.3895C0.312304 19.7357 0.312304 20.2551 0.659309 20.6013L2.04733 21.9862C2.39433 22.3324 2.91484 22.3324 3.26185 21.9862L3.43535 21.8132C4.99687 22.6788 6.9054 22.8518 8.64043 22.3324L9.16092 22.8518L6.9054 24.9293C6.55838 25.2755 6.55838 25.7948 6.9054 26.141L12.631 31.8539C12.978 32.2001 13.4985 32.2001 13.8455 31.8539L16.101 29.6034L18.1831 31.5077L7.7729 41.5485L7.59941 41.3753C7.42591 41.2023 7.25241 41.2023 7.0789 41.3753L6.7319 41.7216C6.5584 41.8947 6.5584 42.0678 6.7319 42.2409C6.5584 42.0678 6.21139 42.0678 6.03789 42.2409L5.51738 42.7602C5.34388 42.9334 5.34388 43.2796 5.51738 43.4528C5.34388 43.2796 4.99687 43.2796 4.82337 43.4528L4.30286 43.9721C4.12936 44.1452 4.12936 44.4915 4.30286 44.6645L4.12936 44.4915C3.95586 44.3183 3.78235 44.3183 3.60885 44.4915L3.43535 44.6645C3.26185 44.8377 3.26185 45.0107 3.43535 45.1839L3.78235 45.5301L3.60885 45.3571C3.43535 45.1839 3.26185 45.1839 3.08834 45.3571L2.91484 45.1839C2.74134 45.3571 2.74134 45.5301 2.91484 45.7033C2.39433 45.8764 1.87383 46.0495 1.35332 46.5688C0.312305 47.6076 0.312305 49.5119 1.35332 50.5505C2.39433 51.5892 4.30286 51.5892 5.34388 50.5505C5.69088 50.2043 6.03789 49.5119 6.21139 48.9925C6.38489 49.1655 6.5584 49.1655 6.7319 48.9925L6.9054 48.6463C7.0789 48.4731 7.0789 48.3 6.9054 48.1269C7.0789 48.3 7.25241 48.3 7.42591 48.1269L7.59941 47.9538C7.7729 47.7806 7.7729 47.6076 7.59941 47.4344L7.42591 47.2614C7.59941 47.4344 7.94642 47.4344 8.11992 47.2614L8.46691 46.915C8.64043 46.742 8.64043 46.3957 8.46691 46.2226C8.64043 46.3957 8.98742 46.3957 9.16092 46.2226L9.68143 45.7033C9.85493 45.5301 9.85493 45.1839 9.68143 45.0107C9.85493 45.1839 10.0284 45.1839 10.2019 45.0107L10.3754 44.6645C10.5489 44.4915 10.5489 44.3183 10.3754 44.1452L10.2019 43.9721L20.265 33.4119L36.4009 48.8193C36.7478 49.1655 37.2684 49.1655 37.4418 48.9925L39.8708 51.243C40.0444 51.4162 40.3914 51.4162 40.5649 51.243L41.0854 50.7236L41.6058 50.2043C41.7794 50.0312 41.7794 49.8581 41.6058 49.5119L39.3503 47.0882L39.5239 46.915C39.8708 46.5688 39.6974 46.2226 39.3503 45.8764L24.0821 29.6034L31.3693 22.1594L31.7163 22.5056C31.8897 22.6788 32.0633 22.6788 32.2368 22.5056L32.5838 22.1594C32.7573 21.9862 32.7573 21.8132 32.5838 21.64C32.4102 21.8132 32.7573 21.8132 32.9307 21.64ZM16.101 19.7357C16.2745 19.5626 16.4481 19.3895 16.795 19.3895C16.9686 19.3895 17.3156 19.5626 17.489 19.7357L17.142 20.0819L16.9686 19.9089C16.795 19.7357 16.795 19.7357 16.6215 19.7357C16.6215 19.7357 16.4481 19.7357 16.4481 19.9089L16.2745 20.0819C16.2745 20.0819 16.2745 20.2551 16.4481 20.4283C16.6215 20.6013 16.6215 20.6013 16.795 20.6013C16.9686 20.6013 16.9686 20.6013 17.142 20.6013C17.3156 20.6013 17.3156 20.6013 17.489 20.6013C17.6625 20.6013 17.8361 20.6013 17.8361 20.6013C18.0095 20.6013 18.1831 20.6013 18.1831 20.7745C18.3566 20.7745 18.53 20.9475 18.53 21.1207C18.7036 21.2938 18.877 21.64 18.877 21.8132C18.877 21.9862 18.7036 22.3324 18.53 22.5056C18.3566 22.6788 18.1831 22.8518 17.8361 22.8518C17.6625 22.8518 17.3156 22.6788 17.142 22.5056L16.9686 22.3324L17.3156 21.9862L17.489 22.1594C17.6625 22.3324 17.6625 22.3324 17.8361 22.3324C17.8361 22.3324 18.0095 22.3324 18.0095 22.1594L18.1831 21.9862C18.1831 21.9862 18.1831 21.8132 18.0095 21.64C17.8361 21.4669 17.8361 21.4669 17.6625 21.4669C17.489 21.4669 17.489 21.4669 17.3156 21.4669C17.142 21.4669 17.142 21.4669 16.9686 21.4669C16.795 21.4669 16.6215 21.4669 16.6215 21.4669C16.4481 21.4669 16.2745 21.4669 16.2745 21.2938C16.101 21.2938 15.9276 21.1207 15.9276 20.9475C15.754 20.7745 15.5805 20.4283 15.5805 20.2551C15.9276 20.2551 15.9276 20.0819 16.101 19.7357ZM12.4575 28.9109L9.68143 26.141L10.3754 25.6217C10.5489 25.4486 10.7225 25.2755 11.0695 25.2755C11.243 25.2755 11.59 25.4486 11.7635 25.6217L12.1105 25.968C12.284 26.141 12.4575 26.4872 12.4575 26.6604C12.4575 26.8336 12.284 27.0066 12.1105 27.3529L11.937 27.526L12.978 28.5647L12.4575 28.9109ZM14.8865 26.6604C14.713 26.6604 14.713 26.6604 14.8865 26.6604C14.713 26.4872 14.713 26.4872 14.8865 26.6604C14.713 26.4872 14.713 26.4872 14.713 26.4872C14.713 26.4872 14.713 26.4872 14.5395 26.3142L14.1925 25.968C13.8455 25.7948 13.8455 25.6217 13.672 25.6217C13.4985 25.6217 13.4985 25.6217 13.325 25.7948L13.1515 25.968L14.1925 27.0066L13.8455 27.526L11.0695 24.7561L11.7635 24.0637C11.937 23.8905 12.1105 23.7174 12.4575 23.7174C12.631 23.7174 12.8045 23.8905 13.1515 24.0637L13.325 24.4099C13.672 24.7561 13.672 24.9293 13.672 25.2755C13.8455 25.2755 14.019 25.2755 14.1925 25.2755C14.366 25.2755 14.5395 25.4486 14.5395 25.6217L14.8865 25.968L15.06 26.141C15.06 26.141 15.2335 26.141 15.2335 26.3142L14.8865 26.6604ZM15.407 25.968L12.631 23.1981L13.8455 22.1594L14.1925 22.5056L13.4985 23.1981L14.1925 23.8905L14.713 23.3712L15.06 23.7174L14.713 24.4099L15.5805 25.1023L16.2745 24.4099L16.6215 24.7561L15.407 25.968ZM17.489 24.0637C17.3156 24.2367 17.142 24.4099 16.795 24.4099C16.6215 24.4099 16.2745 24.2367 16.101 24.0637L15.9276 23.8905L16.2745 23.5443L16.4481 23.7174C16.6215 23.8905 16.6215 23.8905 16.795 23.8905C16.9686 23.8905 16.9686 23.8905 16.9686 23.7174L17.142 23.5443C17.142 23.5443 17.142 23.3712 16.9686 23.1981C16.795 23.025 16.795 23.025 16.6215 23.025C16.4481 23.025 16.4481 23.025 16.2745 23.025C16.101 23.025 16.101 23.025 15.9276 23.025C15.754 23.025 15.5805 23.025 15.5805 23.025C15.407 23.025 15.2335 23.025 15.2335 22.8518C15.06 22.8518 14.8865 22.6788 14.8865 22.5056C14.713 22.3324 14.5395 21.9862 14.5395 21.8132C14.5395 21.64 14.5395 21.2938 14.8865 21.1207C14.8865 20.9475 15.2335 20.9475 15.407 20.9475C15.5805 20.9475 15.9276 21.1207 16.101 21.2938L15.754 21.64H15.5805C15.407 21.4669 15.407 21.4669 15.2335 21.4669C15.2335 21.4669 15.06 21.4669 15.06 21.64L14.8865 21.8132C14.8865 21.8132 14.8865 21.9862 15.06 22.1594C15.2335 22.3324 15.2335 22.3324 15.407 22.3324C15.5805 22.3324 15.5805 22.3324 15.754 22.3324C15.9276 22.3324 15.9276 22.3324 16.101 22.3324C16.2745 22.3324 16.4481 22.3324 16.4481 22.3324C16.6215 22.3324 16.795 22.3324 16.795 22.5056C16.9686 22.5056 17.142 22.6788 17.142 22.8518C17.3156 23.025 17.489 23.3712 17.489 23.5443C17.8361 23.5443 17.6625 23.7174 17.489 24.0637Z" fill="white"/>
<path d="M11.2429 26.1412C11.0694 25.968 11.0694 25.968 11.0694 25.968C11.0694 25.968 10.8959 25.968 10.8959 26.1412L10.7224 26.3144L11.5899 27.1799L11.7634 27.0068L11.9369 26.8336C11.9369 26.8336 11.9369 26.6606 11.7634 26.6606L11.2429 26.1412Z" fill="white"/>
<path d="M12.8046 24.5836C12.6311 24.5836 12.6311 24.4104 12.4576 24.4104C12.4576 24.4104 12.2841 24.4104 12.2841 24.5836L12.1106 24.7566L12.9781 25.6222L13.1516 25.4491L13.3251 25.276C13.3251 25.276 13.3251 25.1029 13.1516 24.9298L12.8046 24.5836Z" fill="white"/>
</svg>
