<svg width="129" height="40" viewBox="0 0 129 40" fill="none" xmlns="http://www.w3.org/2000/svg">
<g clip-path="url(#clip0_549_3181)">
<path d="M26.3531 14.3193L13.1766 10.8235L0.0673552 14.3193C-0.0670985 16.3361 -0.806595 31.5966 9.00853 38.0504C10.1514 38.7899 11.5632 39.4621 13.2438 40C14.9245 39.4621 16.3363 38.7899 17.4791 38.0504C27.2942 31.5966 26.4875 16.3361 26.3531 14.3193ZM16.5379 36.5714C15.5295 37.2437 14.3867 37.7815 13.2438 38.1848C12.0337 37.7815 10.9581 37.2437 9.94971 36.5714C2.15139 31.5294 1.61357 19.9663 1.74803 15.6638L13.2438 12.6386L24.7396 15.6638C24.8069 19.9663 24.3363 31.5294 16.5379 36.5714Z" fill="#383838"/>
<path d="M18.0842 8.67218C17.9498 8.80663 17.5464 8.94109 17.5464 8.94109C17.5464 8.94109 15.6641 8.94109 15.1262 8.94109C14.6557 8.94109 14.0506 8.60495 13.8489 8.4705C14.1178 8.20159 14.3195 7.79823 14.3868 7.39487C14.3868 7.32764 14.3868 7.32764 14.3868 7.26042C14.9246 7.26042 15.3952 7.26042 15.933 7.26042C15.933 5.04193 15.933 2.89067 15.933 0.672181C15.3952 0.941088 14.9918 1.41168 14.7901 1.94949C14.6557 2.2184 14.5884 2.55453 14.5212 2.82344C14.5212 2.9579 14.5212 3.09235 14.454 3.2268C14.454 3.36126 14.3868 3.56294 14.3868 3.69739C14.3868 3.83184 14.3195 4.03353 14.3195 4.16798C14.3195 4.30243 14.2523 4.50411 14.2523 4.63857V4.70579H14.3195C14.3868 4.70579 14.3868 4.70579 14.454 4.70579C14.6557 4.84025 14.7901 4.9747 14.7901 5.17638C14.7901 5.37806 14.6557 5.57974 14.454 5.64697C14.3868 5.64697 14.3195 5.64697 14.3195 5.7142C14.2523 5.7142 14.2523 5.7142 14.1851 5.7142C14.1178 5.64697 14.1178 5.57974 14.1178 5.57974C14.0506 5.44529 13.9834 5.31084 13.9162 5.17638C13.7817 4.84025 13.6473 4.43689 13.58 4.10075C13.5128 3.89907 13.4456 3.69739 13.4456 3.49571C13.4456 3.36126 13.4456 3.2268 13.4456 3.15958C13.4456 3.02512 13.4456 2.89067 13.4456 2.75621C13.4456 2.55453 13.4456 2.35285 13.5128 2.15117C13.5128 2.08395 13.5128 1.94949 13.5128 1.88226C13.5128 1.68058 13.5128 1.54613 13.58 1.34445C13.58 1.21 13.58 1.14277 13.58 1.00832C13.58 0.941088 13.58 0.806634 13.58 0.739408C13.5128 0.4705 13.4456 0.268819 13.3111 0.0671387C13.1094 0.336046 12.975 0.604954 12.975 0.941088C12.975 1.21 12.975 1.4789 13.0422 1.74781C13.0422 1.94949 13.0422 2.15117 13.1094 2.28563C13.1094 2.48731 13.1094 2.68899 13.1094 2.89067C13.1094 3.09235 13.1094 3.29403 13.1094 3.56294C13.1094 3.69739 13.0422 3.83184 13.0422 4.03353C12.975 4.30243 12.9078 4.63857 12.7733 4.90747C12.7061 5.04193 12.7061 5.17638 12.6389 5.31084C12.5716 5.44529 12.5044 5.57974 12.4372 5.7142C12.4372 5.7142 12.4372 5.7142 12.4372 5.78142C12.3699 5.78142 12.2355 5.7142 12.1683 5.7142C11.9666 5.64697 11.8321 5.51252 11.8321 5.24361C11.8321 5.04193 11.9666 4.90747 12.1683 4.84025C12.2355 4.84025 12.3027 4.84025 12.3699 4.84025H12.4372C12.4372 4.70579 12.4372 4.57134 12.3699 4.43689C12.101 4.30243 12.101 4.16798 12.101 4.03353C12.101 3.89907 12.101 3.76462 12.0338 3.63016C12.0338 3.49571 12.0338 3.42848 11.9666 3.29403C11.9666 3.15958 11.8994 3.02512 11.8994 2.89067C11.8994 2.68899 11.8321 2.42008 11.7649 2.2184C11.496 1.54613 11.0926 1.00832 10.4876 0.672181C10.4876 0.672181 10.4876 0.672181 10.4204 0.672181C10.4204 2.89067 10.4204 5.04193 10.4204 7.26042C10.9582 7.26042 11.4288 7.26042 11.9666 7.26042C12.0338 7.52932 12.101 7.79823 12.2355 7.99991C12.3027 8.13437 12.4372 8.26882 12.5044 8.40327C12.3027 8.53773 11.6977 8.87386 11.2271 8.87386C10.622 8.87386 8.80692 8.87386 8.80692 8.87386C8.80692 8.87386 8.40356 8.73941 8.2691 8.60495C8.13465 8.4705 7.66406 8.80663 7.66406 9.14277C7.66406 9.4789 8.06742 9.74781 8.13465 9.74781C8.47079 9.74781 8.26911 9.41168 8.80692 9.41168C9.34474 9.41168 11.0926 9.41168 11.0926 9.41168C11.0926 9.41168 11.8321 9.54613 12.0338 9.74781L12.101 9.81504C12.101 9.88227 12.101 10.1512 12.1683 10.6218L13.1767 10.3529L14.1851 10.6218C14.1851 10.1512 14.1851 9.88227 14.2523 9.81504L14.3195 9.74781C14.5212 9.54613 15.2607 9.41168 15.2607 9.41168C15.2607 9.41168 17.0086 9.41168 17.5464 9.41168C18.0842 9.41168 17.8153 9.74781 18.2187 9.74781C18.2859 9.74781 18.6893 9.54613 18.6893 9.14277C18.6893 8.80663 18.2187 8.53773 18.0842 8.67218ZM14.7901 4.36966C14.7901 4.30243 14.7901 4.23521 14.7901 4.16798C14.7901 4.03353 14.7901 3.89907 14.8573 3.76462C14.8573 3.63016 14.9246 3.42848 14.9246 3.29403C14.9246 3.15958 14.9246 3.02512 14.9918 2.89067C14.9918 2.42008 15.1935 2.01672 15.4624 1.68058C15.4624 2.82344 15.4624 3.89907 15.4624 5.04193C15.3952 5.04193 15.3279 5.04193 15.1935 5.04193C15.1935 4.70579 14.9918 4.50411 14.7901 4.36966ZM14.3868 6.11756C14.454 6.11756 14.5212 6.11756 14.5212 6.05033C14.8573 5.98311 15.059 5.78142 15.1935 5.44529C15.1935 5.44529 15.1935 5.44529 15.1935 5.37806C15.2607 5.37806 15.3279 5.37806 15.4624 5.37806C15.4624 5.37806 15.4624 6.65537 15.4624 6.7226C15.1262 6.7226 14.7901 6.7226 14.454 6.7226C14.454 6.58815 14.454 6.52092 14.454 6.38647C14.454 6.38647 14.3868 6.25201 14.3868 6.11756ZM10.9582 1.61336C11.2271 1.94949 11.3615 2.28563 11.496 2.62176C11.496 2.75621 11.5632 2.89067 11.5632 2.9579C11.5632 3.09235 11.6304 3.29403 11.6304 3.42848C11.6304 3.56294 11.6304 3.69739 11.6977 3.83184C11.6977 3.9663 11.6977 4.10075 11.7649 4.23521V4.30243C11.4288 4.50411 11.2943 4.70579 11.2271 4.9747C11.1599 4.9747 11.0254 4.9747 10.9582 4.9747C10.9582 3.89907 10.9582 2.75621 10.9582 1.61336ZM11.9666 6.78983C11.6304 6.78983 11.2943 6.78983 10.9582 6.78983C10.9582 6.31924 10.9582 5.91588 10.9582 5.44529C11.0254 5.44529 11.1599 5.44529 11.2271 5.44529V5.51252C11.3615 5.78142 11.5632 5.98311 11.8321 6.11756C11.8994 6.11756 11.9666 6.11756 12.0338 6.18479C12.0338 6.18479 12.0338 6.18479 12.101 6.18479C12.0338 6.38647 11.9666 6.58815 11.9666 6.78983ZM13.4456 8.20159C13.4456 7.86546 13.4456 7.59655 13.4456 7.26042C13.6473 7.26042 13.7817 7.26042 13.9834 7.26042C13.8489 7.59655 13.7145 7.93268 13.4456 8.20159ZM13.9162 6.25201C13.9834 6.45369 13.9834 6.58815 13.9834 6.78983C13.7817 6.78983 13.58 6.78983 13.4456 6.78983C13.4456 6.58815 13.58 6.31924 13.9162 6.25201ZM13.2439 4.70579C13.3783 5.10916 13.5128 5.44529 13.7145 5.84865C13.5128 5.91588 13.3783 6.05033 13.2439 6.18479C13.1094 6.05033 12.975 5.91588 12.7733 5.84865C12.9078 5.44529 13.1094 5.10916 13.2439 4.70579ZM12.5044 6.25201C12.7733 6.25201 12.975 6.52092 12.975 6.78983C12.7733 6.78983 12.5716 6.78983 12.4372 6.78983C12.4372 6.58815 12.4372 6.45369 12.5044 6.25201ZM12.975 7.26042C12.975 7.59655 12.975 7.86546 12.975 8.20159C12.9078 8.13437 12.7733 7.93268 12.6389 7.79823C12.5716 7.66378 12.5044 7.4621 12.4372 7.26042C12.6389 7.26042 12.8405 7.26042 12.975 7.26042Z" fill="#383838"/>
<path d="M14.4537 28.5714C14.521 28.5042 14.6554 28.4369 14.7226 28.3697C14.8571 28.3025 14.9243 28.168 15.0588 28.1008C15.1932 28.0336 15.3277 27.8991 15.4621 27.8319C15.9999 27.4958 16.5378 27.1596 17.1428 26.8907C18.2857 26.2857 19.563 25.8151 20.4369 25.5462C20.8403 25.4117 21.1764 25.2773 21.4453 25.2101C21.2436 25.2773 20.9747 25.3445 20.7058 25.479C19.7646 25.8151 18.5546 26.2857 17.4117 26.8907C16.8067 27.1596 16.2689 27.4958 15.731 27.8991C15.5966 27.9664 15.4621 28.1008 15.3277 28.168C15.1932 28.2353 15.0588 28.3697 14.9915 28.4369C14.8571 28.5042 14.7899 28.6386 14.6554 28.7059C14.521 28.7731 14.4537 28.9075 14.3865 28.9748C14.3193 29.042 14.1848 29.1764 14.1176 29.2437C14.0504 29.3109 13.9831 29.3781 13.9831 29.3781C13.9831 26.4874 14.0504 23.3949 14.0504 20.5714C14.0504 20.5714 14.0504 20.5714 14.0504 20.5042C14.0504 20.437 14.1176 20.4369 14.1176 20.3697C14.1176 20.3025 14.1848 20.2353 14.252 20.168C14.3193 20.1008 14.3193 20.0336 14.3865 19.9664C14.4537 19.8991 14.4537 19.8319 14.521 19.7647C17.3445 21.7143 18.4873 18.7563 19.4285 17.0084C19.8319 16.2017 20.2352 15.7983 20.2352 15.7983C20.2352 15.7983 13.4453 15.126 14.3193 19.2941C14.3865 19.2269 14.4537 19.1596 14.521 19.0924C14.5882 19.0252 14.6554 18.958 14.7899 18.8907C14.8571 18.8235 14.9915 18.7563 15.0588 18.6891C15.3949 18.4201 15.7983 18.084 16.2689 17.8823C17.0756 17.3445 17.9495 16.9412 18.6218 16.605C18.8907 16.4706 19.1596 16.3361 19.3613 16.2689C19.2268 16.3361 19.0252 16.4033 18.8235 16.5378C18.1512 16.8739 17.2773 17.3445 16.4705 17.8823C16.0672 18.1512 15.6638 18.4201 15.3277 18.7563C15.2604 18.8235 15.126 18.8907 15.0588 18.958C14.9915 19.0252 14.9243 19.0924 14.7899 19.1596C14.7226 19.2269 14.6554 19.2941 14.5882 19.3613C14.521 19.4285 14.4537 19.4958 14.3865 19.563C14.3193 19.6302 14.252 19.6975 14.1848 19.7647C14.1176 19.8319 14.1176 19.8319 14.0504 19.8991C14.0504 17.3445 14.1176 15.0588 14.1176 13.3109L13.1092 13.042L12.1008 13.3109C12.1008 15.3277 12.168 17.9496 12.168 20.8403C11.8319 19.6302 11.4285 18.5546 10.9579 17.6806C10.8235 17.4117 10.689 17.2101 10.6218 16.9412C10.4873 16.7395 10.3529 16.5378 10.2857 16.3361C10.084 15.9327 9.81507 15.5966 9.61339 15.3277C9.41171 15.0588 9.21003 14.8571 9.1428 14.7227C9.07557 14.6554 9.00835 14.5882 9.00835 14.521C9.00835 14.521 9.07557 14.5882 9.1428 14.7227C9.21003 14.8571 9.41171 15.0588 9.61339 15.3277C9.81507 15.5966 10.0167 15.9327 10.2184 16.3361C10.3529 16.5378 10.4201 16.7395 10.5546 17.0084C10.689 17.2101 10.7562 17.479 10.8907 17.7479C11.2941 18.7563 11.6974 20.0336 12.0336 21.3781C12.1008 21.5798 12.1008 21.8487 12.168 22.0504L12.1008 21.9832C12.0336 21.9159 11.9663 21.8487 11.8991 21.7815C11.8319 21.7143 11.7646 21.647 11.6302 21.5798C11.563 21.5126 11.4285 21.4454 11.3613 21.3781C11.2941 21.3109 11.1596 21.2437 11.0252 21.1764C10.8907 21.1092 10.8235 21.042 10.689 20.9748C10.5546 20.9075 10.4873 20.8403 10.3529 20.7731C9.8823 20.5042 9.34448 20.3025 8.80667 20.1008C7.73104 19.6975 6.6554 19.3613 5.84868 19.1596C5.57977 19.0924 5.37809 19.0252 5.17641 19.0252C5.37809 19.0924 5.71423 19.1596 6.05036 19.2269C6.85709 19.4285 7.99994 19.6975 9.07557 20.1008C9.61339 20.3025 10.1512 20.5042 10.6218 20.7731C10.7562 20.8403 10.8907 20.9075 10.9579 20.9748C11.0924 21.042 11.1596 21.1092 11.2941 21.1764C11.3613 21.2437 11.4285 21.3109 11.563 21.3109C11.563 16.4033 3.96633 18.8235 3.96633 18.8235C3.96633 18.8235 4.50414 19.2269 5.17641 19.9664C6.6554 21.7143 8.67221 24.8067 11.4285 21.9159C11.4957 21.9832 11.563 22.0504 11.6302 22.1176C11.6974 22.1848 11.7646 22.2521 11.8319 22.3193C11.8991 22.3865 11.9663 22.4538 11.9663 22.521C12.0336 22.5882 12.0336 22.6554 12.1008 22.6554C12.168 22.7227 12.2352 22.8571 12.2352 22.8571C12.2352 25.8823 12.3025 29.1092 12.3025 32C12.3025 32 12.3025 32 12.3025 31.9327C12.2352 31.8655 12.168 31.7311 12.0336 31.6638C11.9663 31.5966 11.8319 31.4622 11.7646 31.3277C11.6974 31.1933 11.563 31.126 11.4285 30.9916C11.2941 30.8571 11.2268 30.7899 11.0924 30.6554C10.9579 30.521 10.8235 30.4538 10.7562 30.3193C10.2857 29.9159 9.68061 29.5126 9.1428 29.1092C7.99994 28.3697 6.78986 27.6975 5.84868 27.2941C5.57977 27.1596 5.31087 27.0252 5.10919 26.958C5.37809 27.0924 5.71423 27.2269 6.11759 27.4285C7.05877 27.8319 8.26885 28.5042 9.41171 29.1764C10.0167 29.5126 10.5546 29.9159 11.0924 30.3193C11.2268 30.3865 11.3613 30.521 11.4285 30.6554C11.563 30.7227 11.6302 30.8571 11.7646 30.9916C11.8319 31.0588 11.9663 31.126 12.0336 31.2605C13.2436 25.479 3.76465 26.4201 3.76465 26.4201C3.76465 26.4201 4.30246 27.0252 4.90751 28.1008C6.25204 30.521 7.79826 34.6891 11.7646 31.9327C11.8319 32 11.8991 32.1344 11.9663 32.2017C12.0336 32.2689 12.1008 32.4033 12.168 32.4706C12.2352 32.5378 12.3025 32.605 12.3025 32.7395C12.3025 32.7395 12.3025 32.7395 12.3025 32.8067C12.3025 34.4874 12.3025 36.0336 12.3697 37.4454C12.6386 37.5798 12.8403 37.647 13.1092 37.7143C13.3781 37.647 13.647 37.5126 13.8487 37.4454C13.8487 35.3613 13.9159 32.8067 13.9159 30.1176C13.9159 30.0504 13.9831 30.0504 13.9831 29.9832C14.0504 29.9159 14.1176 29.8487 14.1176 29.7815C14.1848 29.7143 14.252 29.647 14.3193 29.5126C14.3865 29.4454 14.4537 29.3781 14.521 29.3109C18.0167 32.3361 19.8991 28.5042 21.3781 26.3529C22.0504 25.3445 22.6554 24.8739 22.6554 24.8739C22.6554 24.8739 13.8487 22.9916 14.4537 28.5714Z" fill="#383838"/>
<path d="M34.8234 27.7646V25.7478H29.8486V14.7898H31.5965V24.2016H33.9495V14.7898H35.6301V24.2016H36.5713V27.7646H34.8234Z" fill="#383838"/>
<path d="M42.1507 25.7478H37.6465V14.7898H42.1507V16.2688H39.3944V19.3612H42.0835V20.8402H39.3944V24.2016H42.1507V25.7478Z" fill="#383838"/>
<path d="M49.4788 25.7478H47.7309V20.8402H45.4452V25.7478H43.6973V14.7898H45.3779V19.3612H47.7309V14.7898H49.4788V25.7478Z" fill="#383838"/>
<path d="M54.0508 25.7478H52.3701V16.2688H50.6895V14.7898H55.7987V16.2688H54.118V25.7478H54.0508Z" fill="#383838"/>
<path d="M58.6885 25.7478H57.0078V14.7898H59.6297C60.5708 14.7898 61.3103 15.1259 61.7809 15.731C62.2515 16.4032 62.5204 17.21 62.5204 18.1511C62.5204 19.1595 62.2515 19.9663 61.7809 20.5713C61.3103 21.2436 60.5708 21.5125 59.6297 21.5125H58.6885V25.7478ZM59.4952 20.0335C59.8986 20.0335 60.2347 19.8318 60.4364 19.4957C60.6381 19.1595 60.7725 18.689 60.7725 18.1511C60.7725 17.6133 60.6381 17.1427 60.4364 16.8066C60.2347 16.4705 59.8986 16.2688 59.4952 16.2688H58.7557V20.0335H59.4952Z" fill="#383838"/>
<path d="M72.3364 25.7478H70.5885V16.2688H68.3027V25.7478H66.6221V14.7898H72.4036V25.7478H72.3364Z" fill="#383838"/>
<path d="M75.8994 25.7478H74.2188V14.7898H75.8994V25.7478Z" fill="#383838"/>
<path d="M77.1094 27.7647V24.4033C77.3111 24.3361 77.5127 24.2689 77.6472 24.2016C77.7816 24.1344 77.9161 24 78.0506 23.7311C78.185 23.4622 78.3195 23.0588 78.3867 22.521C78.4539 21.9832 78.5211 21.2437 78.5884 20.3025L78.9917 14.7227H83.5632V24.2016H84.5043V27.7647H82.8237V25.7479H78.9245V27.7647H77.1094ZM80.269 20.4369C80.1346 22.1848 79.7985 23.3949 79.2606 24.2016H81.8825V16.2689H80.6052L80.269 20.4369Z" fill="#383838"/>
<path d="M88.4033 25.7478H86.7227V16.2688H85.042V14.7898H90.1512V16.2688H88.4706V25.7478H88.4033Z" fill="#383838"/>
<path d="M93.042 25.7478H91.3613V14.7898H93.9832C94.9244 14.7898 95.6639 15.1259 96.1344 15.731C96.605 16.4032 96.8739 17.21 96.8739 18.1511C96.8739 19.1595 96.605 19.9663 96.1344 20.5713C95.6639 21.2436 94.9244 21.5125 93.9832 21.5125H93.042V25.7478ZM93.7815 20.0335C94.1849 20.0335 94.521 19.8318 94.7227 19.4957C94.9244 19.1595 95.0588 18.689 95.0588 18.1511C95.0588 17.6133 94.9244 17.1427 94.7227 16.8066C94.521 16.4705 94.1849 16.2688 93.7815 16.2688H93.042V20.0335H93.7815Z" fill="#383838"/>
<path d="M99.7648 25.7478H98.1514V14.7898H99.8993V21.4453L102.185 14.7898H103.866V25.7478H102.185V18.8906L99.7648 25.7478Z" fill="#383838"/>
<path d="M113.614 25.7478H111.933V18.7562L109.984 25.7478H109.378L107.496 18.7562V25.7478H105.815V14.7898H108.034L109.715 20.9074L111.462 14.7898H113.681V25.7478H113.614Z" fill="#383838"/>
<path d="M121.815 25.7478H119.866L117.916 21.3108L117.177 22.7226V25.7478H115.496V14.7898H117.177V20.1007L119.664 14.7898H121.547L118.857 19.9663L121.815 25.7478Z" fill="#383838"/>
<path d="M124.437 25.7478H122.823V14.7898H124.571V21.4453L126.857 14.7898H128.538V25.7478H126.857V18.8906L124.437 25.7478Z" fill="#383838"/>
<path d="M30.8577 38.3864C30.4543 38.3864 30.051 38.252 29.7148 38.0503L29.9837 37.0419C30.1854 37.1763 30.3871 37.3108 30.656 37.3108C30.9249 37.3108 31.1266 37.1763 31.2611 36.8402L31.53 35.9662L29.7821 30.252H31.1266L32.2695 34.0167L33.4123 30.252H34.7569L32.5384 37.1763C32.4039 37.6469 32.2022 37.983 31.9333 38.1175C31.5972 38.3192 31.2611 38.3864 30.8577 38.3864Z" fill="#383838"/>
<path d="M36.5048 30.252V32.7393C36.5048 33.1427 36.5721 33.4788 36.7738 33.7478C36.9754 34.0167 37.2443 34.0839 37.5805 34.0839C37.8494 34.0839 38.0511 34.0839 38.1855 34.0167V30.252H39.4628V38.252H38.1855V35.0923C37.8494 35.1595 37.5805 35.1595 37.3788 35.1595C36.7065 35.1595 36.1687 34.9578 35.7654 34.4872C35.4292 34.0167 35.2275 33.4116 35.2275 32.7393V30.252H36.5048Z" fill="#383838"/>
<path d="M44.8406 38.252H43.5633L43.2944 36.6385H41.681L41.4121 38.252H40.1348L41.8154 30.252H43.2272L44.8406 38.252ZM43.16 35.4957L42.4877 31.6637L41.8154 35.4957H43.16Z" fill="#383838"/>
<path d="M47.5971 38.3864C46.7904 38.3864 46.2525 37.9831 45.8492 37.2436C45.4458 36.5041 45.2441 35.4957 45.2441 34.2184C45.2441 32.941 45.4458 31.9326 45.8492 31.1932C46.2525 30.4537 46.7904 30.0503 47.5971 30.0503C47.866 30.0503 48.1349 30.1175 48.3366 30.1847C48.5383 30.252 48.7399 30.4537 48.8744 30.5881C49.0088 30.7898 49.1433 30.9242 49.2105 31.1259C49.2778 31.3276 49.345 31.5293 49.4122 31.731L48.4038 32.1343C48.3366 31.7982 48.2021 31.5293 48.0677 31.3948C47.9332 31.2604 47.7988 31.1259 47.5299 31.1259C46.8576 31.1259 46.4542 32.1343 46.4542 34.1511C46.4542 36.1679 46.7904 37.1763 47.5299 37.1763C47.9332 37.1763 48.2693 36.773 48.4038 35.9663L49.4122 36.3696C49.1433 37.7814 48.5383 38.3864 47.5971 38.3864Z" fill="#383838"/>
<path d="M54.6562 38.252H53.3789V34.6889H51.6982V38.252H50.4209V30.252H51.6982V33.6133H53.3789V30.252H54.6562V38.252Z" fill="#383838"/>
<path d="M57.2111 38.252H56.001V30.252H57.2783V35.1595L58.959 30.252H60.2363V38.252H58.959V33.2772L57.2111 38.252Z" fill="#383838"/>
<path d="M66.2187 38.252H64.807L63.3952 35.0251L62.8574 36.0335V38.252H61.5801V30.252H62.8574V34.1511L64.6725 30.252H66.0843L64.0675 34.0167L66.2187 38.252Z" fill="#383838"/>
<path d="M68.2363 38.252H66.959V30.252H68.2363V38.252Z" fill="#383838"/>
<path d="M71.866 38.252H69.6475V30.252H71.7987C72.4038 30.252 72.8744 30.4536 73.1433 30.7898C73.4794 31.1931 73.6138 31.6637 73.6138 32.2688C73.6138 33.2772 73.2105 33.8822 72.471 34.0839C72.8071 34.1511 73.1433 34.3528 73.3449 34.7562C73.5466 35.1595 73.6811 35.5629 73.6811 36.1007C73.6811 36.773 73.5466 37.3108 73.2105 37.7141C72.9416 38.0503 72.471 38.252 71.866 38.252ZM71.4626 33.6133C72.0004 33.6133 72.3365 33.2099 72.3365 32.4704C72.3365 31.7309 72.0676 31.3276 71.4626 31.3276H70.9248V33.6133H71.4626ZM71.5298 37.1763C72.1349 37.1763 72.471 36.773 72.471 35.9662C72.471 35.6301 72.4038 35.294 72.2693 35.0923C72.1349 34.8906 71.8659 34.7562 71.597 34.7562H70.992V37.1763H71.5298Z" fill="#383838"/>
<path d="M76.8407 30.252H80.4709V31.3276H78.0507V33.2772H78.723C79.3953 33.2772 79.9331 33.4788 80.3365 33.9494C80.6726 34.42 80.8743 35.0251 80.8743 35.6973C80.8743 36.4368 80.6726 36.9746 80.3365 37.4452C80.0003 37.9158 79.4625 38.1175 78.723 38.1175H76.7734V30.252H76.8407ZM78.6558 34.42H78.118V37.1763H78.6558C78.9919 37.1763 79.1936 37.0419 79.3281 36.773C79.4625 36.5041 79.597 36.1679 79.597 35.7646C79.597 35.3612 79.5297 35.0251 79.3281 34.7562C79.1936 34.5545 78.9247 34.42 78.6558 34.42Z" fill="#383838"/>
<path d="M85.7151 37.2436C85.3117 37.9831 84.7739 38.3864 83.9672 38.3864C83.1605 38.3864 82.6227 37.9831 82.2193 37.2436C81.8159 36.5041 81.6143 35.4957 81.6143 34.2184C81.6143 33.0083 81.8159 31.9999 82.2193 31.1932C82.6227 30.4537 83.1605 30.0503 83.9672 30.0503C84.7739 30.0503 85.3117 30.4537 85.7151 31.1932C86.1185 31.9326 86.3201 32.941 86.3201 34.2184C86.2529 35.4957 86.0512 36.5041 85.7151 37.2436ZM83.9 37.3108C84.5722 37.3108 84.9756 36.3024 84.9756 34.2856C84.9756 32.2688 84.6395 31.2604 83.9 31.2604C83.2277 31.2604 82.8916 32.2688 82.8916 34.2856C82.8916 36.3024 83.2277 37.3108 83.9 37.3108Z" fill="#383838"/>
<path d="M88.6056 38.252H87.3955V30.252H88.6728V35.1596L90.3535 30.252H91.6308V38.252H90.3535V33.2773L88.6056 38.252ZM90.9585 28.9075C90.6224 29.3781 90.0846 29.647 89.4795 29.647C88.8745 29.647 88.4039 29.3781 88.0005 28.9075L88.5384 28.5042C88.74 28.8403 89.0762 28.9747 89.4795 28.9747C89.8829 28.9747 90.219 28.8403 90.4207 28.5042L90.9585 28.9075Z" fill="#383838"/>
<path d="M96.8069 37.2436C96.4035 37.9831 95.8657 38.3864 95.059 38.3864C94.2523 38.3864 93.7145 37.9831 93.3111 37.2436C92.9077 36.5041 92.7061 35.4957 92.7061 34.2184C92.7061 33.0083 92.9077 31.9999 93.3111 31.1932C93.7145 30.4537 94.2523 30.0503 95.059 30.0503C95.8657 30.0503 96.4035 30.4537 96.8069 31.1932C97.2103 31.9326 97.4119 32.941 97.4119 34.2184C97.3447 35.4957 97.143 36.5041 96.8069 37.2436ZM95.059 37.3108C95.7313 37.3108 96.1346 36.3024 96.1346 34.2856C96.1346 32.2688 95.7985 31.2604 95.059 31.2604C94.3867 31.2604 94.0506 32.2688 94.0506 34.2856C94.0506 36.3024 94.3195 37.3108 95.059 37.3108Z" fill="#383838"/>
<path d="M100.707 38.252H98.4883V30.252H100.64C101.245 30.252 101.715 30.4536 101.984 30.7898C102.32 31.1931 102.455 31.6637 102.455 32.2688C102.455 33.2772 102.051 33.8822 101.312 34.0839C101.648 34.1511 101.984 34.3528 102.186 34.7562C102.387 35.1595 102.522 35.5629 102.522 36.1007C102.522 36.773 102.387 37.3108 102.051 37.7141C101.782 38.0503 101.312 38.252 100.707 38.252ZM100.303 33.6133C100.841 33.6133 101.177 33.2099 101.177 32.4704C101.177 31.7309 100.908 31.3276 100.303 31.3276H99.7656V33.6133H100.303ZM100.371 37.1763C100.976 37.1763 101.312 36.773 101.312 35.9662C101.312 35.6301 101.245 35.294 101.11 35.0923C100.976 34.8906 100.707 34.7562 100.438 34.7562H99.8328V37.1763H100.371Z" fill="#383838"/>
<path d="M104.874 38.252H103.664V30.252H104.941V35.1595L106.622 30.252H107.899V38.252H106.622V33.2772L104.874 38.252Z" fill="#383838"/>
<path d="M113.48 38.252H112.068L110.992 35.2941L109.917 38.252H108.505L110.253 34.1512L108.639 30.1848H110.051L110.992 33.0083L111.933 30.1848H113.345L111.732 34.1512L113.48 38.252Z" fill="#383838"/>
<path d="M115.698 39.7309V37.2436C115.9 37.1763 115.967 37.1763 116.102 37.1091C116.169 37.0419 116.303 36.9074 116.371 36.773C116.438 36.5713 116.572 36.3024 116.639 35.899C116.707 35.4957 116.774 34.9578 116.774 34.2856L116.976 30.252H120.337V37.1763H121.009V39.7309H119.732V38.252H116.841V39.7309H115.698ZM117.984 34.42C117.917 35.6973 117.648 36.6385 117.244 37.1763H119.127V31.3948H118.186L117.984 34.42Z" fill="#383838"/>
<path d="M123.16 38.252H121.883V30.252H123.16V38.252Z" fill="#383838"/>
<path d="M125.715 38.252H124.505V30.252H125.782V35.1596L127.463 30.252H128.74V38.252H127.463V33.2773L125.715 38.252ZM128.068 28.9075C127.732 29.3781 127.194 29.647 126.589 29.647C125.984 29.647 125.513 29.3781 125.11 28.9075L125.648 28.5042C125.849 28.8403 126.186 28.9747 126.589 28.9747C126.992 28.9747 127.261 28.8403 127.53 28.5042L128.068 28.9075Z" fill="#383838"/>
</g>
<defs>
<clipPath id="clip0_549_3181">
<rect width="128.74" height="40" fill="white"/>
</clipPath>
</defs>
</svg>
