<svg width="158" height="240" viewBox="0 0 158 240" fill="none" xmlns="http://www.w3.org/2000/svg">
<g clip-path="url(#clip0_549_3151)">
<path d="M78.7868 229.2V240C68.7884 236.8 60.3898 232.8 53.5909 228.4C-4.79937 190 -0.400097 99.2 0.39977 87.2H0.799704L10.3981 95.2C9.99818 121.2 12.7977 189.6 59.19 219.6C64.7891 223.6 71.588 226.8 78.7868 229.2Z" fill="#383838"/>
<path d="M107.582 51.5999C106.782 52.3999 104.382 53.1999 104.382 53.1999C104.382 53.1999 93.1839 53.1999 89.9844 53.1999C87.1849 53.1999 83.5855 51.1999 82.3857 50.3999C83.9854 48.7999 85.1852 46.3999 85.5852 43.9999C85.5852 43.5999 85.5852 43.5999 85.5852 43.1999C88.7846 43.1999 91.5842 43.1999 94.7836 43.1999C94.7836 29.9999 94.7836 17.1999 94.7836 3.9999C91.5842 5.5999 89.1846 8.3999 87.9848 11.5999C87.1849 13.1999 86.785 15.1999 86.385 16.7999C86.385 17.5999 86.385 18.3999 85.9851 19.1999C85.9851 19.9999 85.5852 21.1999 85.5852 21.9999C85.5852 22.7999 85.1852 23.9999 85.1852 24.7999C85.1852 25.5999 84.7853 26.7999 84.7853 27.5999V27.9999H85.1852C85.5852 27.9999 85.5852 27.9999 85.9851 27.9999C87.1849 28.7999 87.9848 29.5999 87.9848 30.7999C87.9848 31.9999 87.1849 33.1999 85.9851 33.5999C85.5852 33.5999 85.1852 33.5999 85.1852 33.9999C84.7853 33.9999 84.7853 33.9999 84.3854 33.9999C83.9854 33.5999 83.9854 33.1999 83.9854 33.1999C83.5855 32.3999 83.1856 31.5999 82.7856 30.7999C81.9858 28.7999 81.1859 26.3999 80.786 24.3999C80.386 23.1999 79.9861 21.9999 79.9861 20.7999C79.9861 19.9999 79.9861 19.1999 79.9861 18.7999C79.9861 17.9999 79.9861 17.1999 79.9861 16.3999C79.9861 15.1999 79.9861 13.9999 80.386 12.7999C80.386 12.3999 80.386 11.5999 80.386 11.1999C80.386 9.9999 80.386 9.1999 80.786 7.9999C80.786 7.1999 80.786 6.7999 80.786 5.9999C80.786 5.5999 80.786 4.7999 80.786 4.3999C80.386 2.7999 79.9861 1.5999 79.1862 0.399902C77.9864 1.9999 77.1866 3.5999 77.1866 5.5999C77.1866 7.1999 77.1866 8.7999 77.5865 10.3999C77.5865 11.5999 77.5865 12.7999 77.9864 13.5999C77.9864 14.7999 77.9864 15.9999 77.9864 17.1999C77.9864 18.3999 77.9864 19.5999 77.9864 21.1999C77.9864 21.9999 77.5865 22.7999 77.5865 23.9999C77.1866 25.5999 76.7866 27.5999 75.9868 29.1999C75.5868 29.9999 75.5868 30.7999 75.1869 31.5999C74.787 32.3999 74.387 33.1999 73.9871 33.9999C73.9871 33.9999 73.9871 33.9999 73.9871 34.3999C73.5872 34.3999 72.7873 33.9999 72.3874 33.9999C71.1876 33.5999 70.3877 32.7999 70.3877 31.1999C70.3877 29.9999 71.1876 29.1999 72.3874 28.7999C72.7873 28.7999 73.1872 28.7999 73.5872 28.7999H73.9871C73.9871 27.9999 73.9871 27.1999 73.5872 26.3999C71.9874 25.5999 71.9874 24.7999 71.9874 23.9999C71.9874 23.1999 71.9874 22.3999 71.5875 21.5999C71.5875 20.7999 71.5875 20.3999 71.1875 19.5999C71.1875 18.7999 70.7876 17.9999 70.7876 17.1999C70.7876 15.9999 70.3877 14.3999 69.9878 13.1999C68.388 9.1999 65.9884 5.9999 62.389 3.9999C62.389 3.9999 62.389 3.9999 61.9891 3.9999C61.9891 17.1999 61.9891 29.9999 61.9891 43.1999C65.1885 43.1999 67.9881 43.1999 71.1875 43.1999C71.5875 44.7999 71.9874 46.3999 72.7873 47.5999C73.1872 48.3999 73.9871 49.1999 74.387 49.9999C73.1872 50.7999 69.5878 52.7999 66.7883 52.7999C63.1889 52.7999 52.3907 52.7999 52.3907 52.7999C52.3907 52.7999 49.9911 51.9999 49.1912 51.1999C48.3913 50.3999 45.5918 52.3999 45.5918 54.3999C45.5918 56.3999 47.9914 57.9999 48.3913 57.9999C50.391 57.9999 49.1912 55.9999 52.3907 55.9999C55.5901 55.9999 65.9884 55.9999 65.9884 55.9999C65.9884 55.9999 70.3877 56.7999 71.5875 57.9999L71.9874 58.3999C71.9874 58.7999 71.9874 60.3999 72.3874 63.1999L78.3864 61.5999L84.3854 63.1999C84.3854 60.3999 84.3854 58.7999 84.7853 58.3999L85.1852 57.9999C86.385 56.7999 90.7843 55.9999 90.7843 55.9999C90.7843 55.9999 101.183 55.9999 104.382 55.9999C107.582 55.9999 105.982 57.9999 108.381 57.9999C108.781 57.9999 111.181 56.7999 111.181 54.3999C111.181 52.3999 108.381 50.7999 107.582 51.5999ZM87.9848 25.9999C87.9848 25.5999 87.9848 25.1999 87.9848 24.7999C87.9848 23.9999 87.9848 23.1999 88.3847 22.3999C88.3847 21.5999 88.7846 20.3999 88.7846 19.5999C88.7846 18.7999 88.7846 17.9999 89.1846 17.1999C89.1846 14.3999 90.3844 11.9999 91.9841 9.9999C91.9841 16.7999 91.9841 23.1999 91.9841 29.9999C91.5842 29.9999 91.1842 29.9999 90.3844 29.9999C90.3844 27.9999 89.1846 26.7999 87.9848 25.9999ZM85.5852 36.3999C85.9851 36.3999 86.385 36.3999 86.385 35.9999C88.3847 35.5999 89.5845 34.3999 90.3844 32.3999C90.3844 32.3999 90.3844 32.3999 90.3844 31.9999C90.7843 31.9999 91.1842 31.9999 91.9841 31.9999C91.9841 31.9999 91.9841 39.5999 91.9841 39.9999C89.9844 39.9999 87.9848 39.9999 85.9851 39.9999C85.9851 39.1999 85.9851 38.7999 85.9851 37.9999C85.9851 37.9999 85.5852 37.1999 85.5852 36.3999ZM65.1885 9.5999C66.7883 11.5999 67.5882 13.5999 68.388 15.5999C68.388 16.3999 68.788 17.1999 68.788 17.5999C68.788 18.3999 69.1879 19.5999 69.1879 20.3999C69.1879 21.1999 69.1879 21.9999 69.5878 22.7999C69.5878 23.5999 69.5878 24.3999 69.9878 25.1999V25.5999C67.9881 26.7999 67.1882 27.9999 66.7883 29.5999C66.3884 29.5999 65.5885 29.5999 65.1885 29.5999C65.1885 23.1999 65.1885 16.3999 65.1885 9.5999ZM71.1875 40.3999C69.1879 40.3999 67.1882 40.3999 65.1885 40.3999C65.1885 37.5999 65.1885 35.1999 65.1885 32.3999C65.5885 32.3999 66.3884 32.3999 66.7883 32.3999V32.7999C67.5882 34.3999 68.788 35.5999 70.3877 36.3999C70.7876 36.3999 71.1876 36.3999 71.5875 36.7999C71.5875 36.7999 71.5875 36.7999 71.9874 36.7999C71.5875 37.9999 71.1875 39.1999 71.1875 40.3999ZM79.9861 48.7999C79.9861 46.7999 79.9861 45.1999 79.9861 43.1999C81.1859 43.1999 81.9858 43.1999 83.1856 43.1999C82.3857 45.1999 81.5858 47.1999 79.9861 48.7999ZM82.7856 37.1999C83.1856 38.3999 83.1856 39.1999 83.1856 40.3999C81.9858 40.3999 80.786 40.3999 79.9861 40.3999C79.9861 39.1999 80.786 37.5999 82.7856 37.1999ZM78.7863 27.9999C79.5862 30.3999 80.386 32.3999 81.5858 34.7999C80.386 35.1999 79.5862 35.9999 78.7863 36.7999C77.9864 35.9999 77.1866 35.1999 75.9868 34.7999C76.7866 32.3999 77.9864 30.3999 78.7863 27.9999ZM74.387 37.1999C75.9868 37.1999 77.1866 38.7999 77.1866 40.3999C75.9868 40.3999 74.787 40.3999 73.9871 40.3999C73.9871 39.1999 73.9871 38.3999 74.387 37.1999ZM77.1866 43.1999C77.1866 45.1999 77.1866 46.7999 77.1866 48.7999C76.7866 48.3999 75.9868 47.1999 75.1869 46.3999C74.787 45.5999 74.387 44.3999 73.9871 43.1999C75.1869 43.1999 76.3867 43.1999 77.1866 43.1999Z" fill="#383838"/>
<path d="M85.9859 172.8C86.3858 172.4 87.1857 172 87.5856 171.6C88.3855 171.2 88.7854 170.4 89.5853 170C90.3851 169.6 91.185 168.8 91.9849 168.4C95.1843 166.4 98.3838 164.4 101.983 162.8C108.782 159.2 116.381 156.4 121.58 154.8C123.98 154 125.979 153.2 127.579 152.8C126.379 153.2 124.779 153.6 123.18 154.4C117.581 156.4 110.382 159.2 103.583 162.8C99.9835 164.4 96.7841 166.4 93.5846 168.8C92.7847 169.2 91.9849 170 91.185 170.4C90.3851 170.8 89.5853 171.6 89.1853 172C88.3855 172.4 87.9855 173.2 87.1857 173.6C86.3858 174 85.9859 174.8 85.5859 175.2C85.186 175.6 84.3861 176.4 83.9862 176.8C83.5863 177.2 83.1863 177.6 83.1863 177.6C83.1863 160.4 83.5863 142 83.5863 125.2C83.5863 125.2 83.5863 125.2 83.5863 124.8C83.5863 124.4 83.9862 124.4 83.9862 124C83.9862 123.6 84.3861 123.2 84.7861 122.8C85.186 122.4 85.186 122 85.5859 121.6C85.9859 121.2 85.9859 120.8 86.3858 120.4C103.183 132 109.982 114.4 115.581 104C117.981 99.1999 120.38 96.7999 120.38 96.7999C120.38 96.7999 79.9869 92.7999 85.186 117.6C85.5859 117.2 85.9859 116.8 86.3858 116.4C86.7857 116 87.1857 115.6 87.9855 115.2C88.3855 114.8 89.1853 114.4 89.5853 114C91.5849 112.4 93.9846 110.4 96.7841 109.2C101.583 106 106.782 103.6 110.782 101.6C112.382 100.8 113.981 99.9999 115.181 99.5999C114.381 99.9999 113.181 100.4 111.982 101.2C107.982 103.2 102.783 106 97.9839 109.2C95.5843 110.8 93.1847 112.4 91.185 114.4C90.7851 114.8 89.9852 115.2 89.5853 115.6C89.1853 116 88.7854 116.4 87.9855 116.8C87.5856 117.2 87.1857 117.6 86.7857 118C86.3858 118.4 85.9859 118.8 85.5859 119.2C85.186 119.6 84.7861 120 84.3861 120.4C83.9862 120.8 83.9862 120.8 83.5863 121.2C83.5863 106 83.9862 92.3999 83.9862 81.9999L77.9872 80.3999L71.9882 81.9999C71.9882 93.9999 72.3881 109.6 72.3881 126.8C70.3885 119.6 67.9889 113.2 65.1893 108C64.3895 106.4 63.5896 105.2 63.1897 103.6C62.3898 102.4 61.5899 101.2 61.19 99.9999C59.9902 97.5999 58.3904 95.5999 57.1907 93.9999C55.9908 92.3999 54.791 91.1999 54.3911 90.3999C53.9912 89.9999 53.5912 89.5999 53.5912 89.1999C53.5912 89.1999 53.9912 89.5999 54.3911 90.3999C54.791 91.1999 55.9908 92.3999 57.1907 93.9999C58.3904 95.5999 59.5902 97.5999 60.7901 99.9999C61.5899 101.2 61.9899 102.4 62.7897 104C63.5896 105.2 63.9895 106.8 64.7894 108.4C67.189 114.4 69.5886 122 71.5883 130C71.9882 131.2 71.9882 132.8 72.3881 134L71.9882 133.6C71.5883 133.2 71.1883 132.8 70.7884 132.4C70.3885 132 69.9885 131.6 69.1887 131.2C68.7887 130.8 67.9889 130.4 67.5889 130C67.189 129.6 66.3891 129.2 65.5893 128.8C64.7894 128.4 64.3895 128 63.5896 127.6C62.7897 127.2 62.3898 126.8 61.5899 126.4C58.7904 124.8 55.5909 123.6 52.3914 122.4C45.9925 120 39.5936 118 34.7944 116.8C33.1946 116.4 31.9948 116 30.795 116C31.9948 116.4 33.9945 116.8 35.9942 117.2C40.7934 118.4 47.5922 120 53.9912 122.4C57.1906 123.6 60.3901 124.8 63.1897 126.4C63.9895 126.8 64.7894 127.2 65.1893 127.6C65.9892 128 66.3891 128.4 67.189 128.8C67.5889 129.2 67.9889 129.6 68.7887 129.6C68.7887 100.4 23.5962 114.8 23.5962 114.8C23.5962 114.8 26.7957 117.2 30.795 121.6C39.5936 132 51.5916 150.4 67.9889 133.2C68.3888 133.6 68.7887 134 69.1887 134.4C69.5886 134.8 69.9885 135.2 70.3885 135.6C70.7884 136 71.1883 136.4 71.1883 136.8C71.5883 137.2 71.5883 137.6 71.9882 137.6C72.3881 138 72.7881 138.8 72.7881 138.8C72.7881 156.8 73.188 176 73.188 193.2C73.188 193.2 73.188 193.2 73.188 192.8C72.7881 192.4 72.3881 191.6 71.5883 191.2C71.1883 190.8 70.3885 190 69.9885 189.2C69.5886 188.4 68.7887 188 67.9889 187.2C67.189 186.4 66.7891 186 65.9892 185.2C65.1893 184.4 64.3895 184 63.9895 183.2C61.19 180.8 57.5906 178.4 54.3911 176C47.5922 171.6 40.3934 167.6 34.7944 165.2C33.1946 164.4 31.5949 163.6 30.3951 163.2C31.9948 164 33.9945 164.8 36.3941 166C41.9932 168.4 49.192 172.4 55.9908 176.4C59.5903 178.4 62.7897 180.8 65.9892 183.2C66.7891 183.6 67.5889 184.4 67.9889 185.2C68.7887 185.6 69.1887 186.4 69.9885 187.2C70.3885 187.6 71.1883 188 71.5883 188.8C79.5869 154.4 23.1963 160 23.1963 160C23.1963 160 26.3958 163.6 29.9952 170C37.9938 184.4 47.1923 209.2 70.7884 192.8C71.1883 193.2 71.5883 194 71.9882 194.4C72.3881 194.8 72.7881 195.6 73.188 196C73.5879 196.4 73.9879 196.8 73.9879 197.6C73.9879 197.6 73.9879 197.6 73.9879 198C73.9879 208 73.9879 217.2 74.3878 225.6C75.9875 226.4 77.1873 226.8 78.7871 227.2C80.3868 226.8 81.9865 226 83.1863 225.6C83.1863 213.2 83.5863 198 83.5863 182C83.5863 181.6 83.9862 181.6 83.9862 181.2C84.3861 180.8 84.7861 180.4 84.7861 180C85.186 179.6 85.5859 179.2 85.9859 178.4C86.3858 178 86.7857 177.6 87.1857 177.2C107.982 195.2 119.18 172.4 127.979 159.6C131.978 153.6 135.578 150.8 135.578 150.8C135.578 150.8 82.3865 139.6 85.9859 172.8Z" fill="#383838"/>
<path d="M147.176 95.1999L78.7869 76.7999L10.3982 95.1999L0.799805 87.1999L78.7869 66.3999L156.774 87.1999L147.176 95.1999Z" fill="#383838"/>
<path d="M156.774 87.2L146.775 95.6C147.175 112.8 145.976 148.8 131.578 179.6C124.379 195.2 113.581 209.6 97.9835 220C91.9845 224 85.5855 227.2 78.3867 229.6V240C88.3851 236.8 96.7837 232.8 103.583 228.4C120.78 217.2 132.778 201.2 140.376 184C159.973 143.2 157.574 95.6 156.774 87.2Z" fill="#383838"/>
</g>
<defs>
<clipPath id="clip0_549_3151">
<rect width="157.174" height="240" fill="white"/>
</clipPath>
</defs>
</svg>
