<svg xmlns="http://www.w3.org/2000/svg" viewBox="0 0 370.3 57.4"><defs><style>.cls-1{fill:#fff;}</style></defs><g id="Слой_2" data-name="Слой 2"><g id="Layer_1" data-name="Layer 1"><path class="cls-1" d="M288.8,7.5q3.3,0,3.3-3.3h3.2a5.72,5.72,0,0,1-1.7,4.4,6.8,6.8,0,0,1-4.7,1.5,6.9,6.9,0,0,1-4.8-1.5,5.57,5.57,0,0,1-1.7-4.4h3.2C285.6,6.4,286.6,7.5,288.8,7.5Z"/><path class="cls-1" d="M63.4,28.8c0-3.4,1.2-5.9,3.5-7.5s5.6-2.5,9.9-2.5h1.3V16.1H74.3V12.7H86.6v3.4H82.8v2.6h1c4.3,0,7.7.8,10,2.4s3.5,4.1,3.5,7.6a8.59,8.59,0,0,1-3.5,7.4c-2.3,1.6-5.8,2.5-10.2,2.5h-.9v2.7h3.8v3.4H74.2V41.3H78V38.6h-.6c-4.3.1-7.7-.7-10.2-2.3S63.4,32.2,63.4,28.8Zm4.9-.2a6,6,0,0,0,2.1,4.8c1.4,1.2,3.6,1.7,6.5,1.7H78V22.2H76.6a10,10,0,0,0-6.2,1.7A5.67,5.67,0,0,0,68.3,28.6Zm24,0c0-4.2-2.7-6.4-8.2-6.4H82.6V35.1h1c2.9,0,5.1-.5,6.5-1.6S92.3,30.8,92.3,28.6Z"/><path class="cls-1" d="M132.3,28.6a16.56,16.56,0,0,1-2.2,8.7,14.82,14.82,0,0,1-6,5.9,17.39,17.39,0,0,1-8.6,2.1,16.08,16.08,0,0,1-8.5-2.2,14.59,14.59,0,0,1-5.8-6,17.39,17.39,0,0,1-2.1-8.6,17,17,0,0,1,2.1-8.5,15.38,15.38,0,0,1,5.8-5.8,17,17,0,0,1,8.5-2.1,16.56,16.56,0,0,1,8.7,2.2,15.21,15.21,0,0,1,5.9,5.9A16,16,0,0,1,132.3,28.6ZM115.7,40.9a10.73,10.73,0,0,0,5.9-1.7,11.19,11.19,0,0,0,4-4.6,14,14,0,0,0,1.4-6.1,12.81,12.81,0,0,0-1.5-6.1,11.05,11.05,0,0,0-10-6,10.46,10.46,0,0,0-9.7,6,14.11,14.11,0,0,0-1.4,6.2,14.36,14.36,0,0,0,1.4,6.4,10.41,10.41,0,0,0,3.9,4.4A11.62,11.62,0,0,0,115.7,40.9Z"/><path class="cls-1" d="M142.1,16.7v24h3.7v4H133.3v-4h4v-24h-4v-4h13v4Zm15.9,0-9.9,11.1,10.2,12.9h3.4v4h-13v-4h3.5L142.6,28l9.9-11.3h-3.7v-4h12.6v4Z"/><path class="cls-1" d="M173.1,16.7l7.3,13.9L187,16.7h-4.1v-4h11.9v4h-3.3l-7.8,16.2a74.21,74.21,0,0,1-3.6,6.8,12.41,12.41,0,0,1-3.4,3.8,8.54,8.54,0,0,1-5.1,1.5,13.7,13.7,0,0,1-3.6-.4V40.7a16.9,16.9,0,0,0,3,.3,5.56,5.56,0,0,0,3.8-1.4,15.28,15.28,0,0,0,3.1-4.5l-10-18.4h-3.8v-4h13.1v4Z"/><path class="cls-1" d="M219.6,16.2V12.7h4.1V23h-4.2a11.19,11.19,0,0,0-4.3-4.8,11.32,11.32,0,0,0-6-1.7,9.75,9.75,0,0,0-5.6,1.7,11.42,11.42,0,0,0-3.9,4.5,12.6,12.6,0,0,0-1.4,6,12.81,12.81,0,0,0,1.5,6.1,11.65,11.65,0,0,0,4,4.5,10.31,10.31,0,0,0,5.7,1.7,11,11,0,0,0,6.8-2.3,13.26,13.26,0,0,0,4.3-6.7l4.1,2.2a15.37,15.37,0,0,1-5.9,8.3,16.42,16.42,0,0,1-9.8,2.9,15.17,15.17,0,0,1-13.9-8.2,17.44,17.44,0,0,1-2-8.2,19.21,19.21,0,0,1,2-8.7,15.4,15.4,0,0,1,5.7-5.9,16.25,16.25,0,0,1,8.3-2.1,15,15,0,0,1,10.5,3.9Z"/><path class="cls-1" d="M255.7,20.9a7.67,7.67,0,0,1-1,4,6.69,6.69,0,0,1-2.9,2.6,7.52,7.52,0,0,1,4.1,3,8,8,0,0,1,1.4,4.8,8.2,8.2,0,0,1-3.3,7c-2.2,1.6-5.6,2.4-10,2.4H232.9v-4h4v-24h-4v-4h11.3c3.9,0,6.8.7,8.7,2A7.35,7.35,0,0,1,255.7,20.9Zm-4.8.3a3.88,3.88,0,0,0-1.6-3.4,7.51,7.51,0,0,0-4.5-1.1h-3.2V26h3.2C248.9,26,250.9,24.4,250.9,21.2Zm1.5,14.1a4.47,4.47,0,0,0-1.9-4c-1.3-.9-3.2-1.3-5.8-1.3h-3.1V40.7h1.9a20.53,20.53,0,0,0,4.7-.4,5.37,5.37,0,0,0,3-1.5A4.79,4.79,0,0,0,252.4,35.3Z"/><path class="cls-1" d="M267.5,16.7v24H271v4H259.2v-4h3.5v-24h-3.5v-4H271v4Z"/><polygon class="cls-1" points="281.8 16.7 281.8 32.9 295.8 19.3 295.8 16.7 292 16.7 292 12.7 304.2 12.7 304.2 16.7 300.6 16.7 300.6 40.7 304.2 40.7 304.2 44.7 292 44.7 292 40.7 295.8 40.7 295.8 24.1 281.8 37.8 281.8 40.7 285.6 40.7 285.6 44.7 273.4 44.7 273.4 40.7 277 40.7 277 16.7 273.4 16.7 273.4 12.7 285.6 12.7 285.6 16.7 281.8 16.7"/><path class="cls-1" d="M314.8,16.7v9h13.9v-9H325v-4h12.3v4h-3.7v24h3.7v4H325v-4h3.7v-11H314.8v11h3.8v4H306.4v-4H310v-24h-3.6v-4h12.2v4Z"/><path class="cls-1" d="M347.9,16.7V32.9l13.9-13.6V16.7h-3.7v-4h12.2v4h-3.7v24h3.7v4H358.1v-4h3.7V24.1L347.9,37.8v2.9h3.8v4H339.5v-4h3.7v-24h-3.7v-4h12.2v4Z"/><path class="cls-1" d="M28.7,57.4A28.7,28.7,0,1,1,57.4,28.7,28.76,28.76,0,0,1,28.7,57.4Zm0-56.2A27.4,27.4,0,1,0,56.1,28.6,27.44,27.44,0,0,0,28.7,1.2Z"/><path class="cls-1" d="M32,27.4a8.28,8.28,0,0,0,4.5-1.3,5,5,0,0,0,1.8-4.3c0-3.6-2.3-5.4-7-5.4h-.5v11H32Z"/><path class="cls-1" d="M32.2,30.4H30.8v11h.7c2.5,0,4.4-.4,5.6-1.3a5,5,0,0,0,1.8-4.3C38.9,32.3,36.7,30.5,32.2,30.4Z"/><path class="cls-1" d="M18.5,21.9a5.11,5.11,0,0,0,1.8,4.3c1.2.9,3.1,1.3,5.6,1.3h.9v-11H25.5C20.9,16.4,18.5,18.3,18.5,21.9Z"/><path class="cls-1" d="M28.7,2A26.7,26.7,0,1,0,55.4,28.7,26.69,26.69,0,0,0,28.7,2ZM40.1,42.3c-2,1.4-4.9,2.1-8.8,2.1h-.5v1.5h3.3v3H23.6v-3h3.3V30.5h-.7c-3.8,0-6.8-.7-8.8-2.1a7.18,7.18,0,0,1-3-6.3c0-2.9,1-5.1,3-6.5s4.9-2.1,8.6-2.1h.9V11.7H23.6v-3H34.1v3H30.8v1.8h0c3.7,0,6.6.7,8.6,2.1s3,3.6,3,6.5a7.18,7.18,0,0,1-3,6.3,2.51,2.51,0,0,1-.7.4c.5.2.9.5,1.3.7,2,1.4,3,3.6,3,6.5A6.89,6.89,0,0,1,40.1,42.3Z"/></g></g></svg>