<svg width="24" height="24" viewBox="0 0 24 24" fill="none" xmlns="http://www.w3.org/2000/svg">
<g clip-path="url(#clip0_4512_250)">
<path d="M16.6331 1.34946C16.6989 1.14449 16.6806 0.922052 16.5823 0.730307C16.4839 0.538561 16.3134 0.392936 16.1076 0.324953C15.9019 0.256969 15.6774 0.272099 15.4827 0.367067C15.2881 0.462034 15.1391 0.629198 15.0678 0.832373L14.2428 3.28582C14.1769 3.49081 14.1952 3.71324 14.2935 3.90498C14.3918 4.09673 14.5623 4.24235 14.7682 4.31034C14.974 4.37833 15.1985 4.36319 15.3931 4.26822C15.5877 4.17326 15.7368 4.0061 15.8081 3.80291L16.6331 1.34946ZM21.6579 1.33091C21.8123 1.48433 21.8991 1.69228 21.8991 1.9091C21.8991 2.12591 21.8123 2.33387 21.6579 2.48728L18.9079 5.21455C18.8323 5.29494 18.7412 5.35941 18.64 5.40413C18.5388 5.44886 18.4296 5.4729 18.3188 5.47483C18.2081 5.47677 18.0981 5.45657 17.9953 5.41542C17.8926 5.37426 17.7992 5.31302 17.7209 5.23532C17.6426 5.15763 17.5808 5.06509 17.5393 4.96321C17.4978 4.86133 17.4774 4.7522 17.4794 4.64235C17.4813 4.53249 17.5056 4.42414 17.5507 4.32378C17.5958 4.22343 17.6608 4.13309 17.7419 4.05819L20.4919 1.33091C20.6465 1.1777 20.8562 1.09163 21.0749 1.09163C21.2935 1.09163 21.5031 1.1777 21.6579 1.33091ZM7.68345 3.61964C7.86393 3.24796 8.13311 2.92555 8.46766 2.68036C8.80219 2.43518 9.19199 2.27462 9.60323 2.21261C10.0145 2.15059 10.4348 2.189 10.8277 2.3245C11.2206 2.46001 11.5742 2.68851 11.8579 2.99019L19.5646 11.1786C19.8428 11.4743 20.0457 11.8317 20.1564 12.221C20.267 12.6103 20.2821 13.0202 20.2006 13.4166C20.119 13.8128 19.943 14.184 19.6872 14.4992C19.4316 14.8142 19.1036 15.0642 18.7308 15.228L14.9688 16.8818C15.4263 17.9374 15.4455 19.1293 15.0224 20.199C14.5992 21.2685 13.7677 22.1294 12.7085 22.5947C11.6492 23.0601 10.4476 23.0924 9.36454 22.6845C8.28145 22.2767 7.40425 21.4617 6.92335 20.4164L5.36465 21.1015C5.00816 21.2581 4.61297 21.3069 4.22864 21.2416C3.84431 21.1765 3.48795 21.0002 3.20425 20.7349L1.62135 19.2546C1.3153 18.9684 1.10907 18.5931 1.03253 18.1831C0.955989 17.7729 1.01312 17.3493 1.19565 16.9735L7.68345 3.61964ZM8.43365 19.7531C8.74418 20.3902 9.29222 20.8826 9.96204 21.1264C10.6319 21.3703 11.371 21.3463 12.0233 21.0597C12.6757 20.7731 13.1902 20.2463 13.4582 19.5904C13.7262 18.9347 13.7267 18.2013 13.4596 17.5451L8.43255 19.7531H8.43365ZM10.6512 4.10728C10.5506 4.00035 10.4252 3.91935 10.2859 3.87129C10.1466 3.82324 9.99761 3.80958 9.8518 3.8315C9.70597 3.85341 9.56773 3.91025 9.44904 3.99709C9.33037 4.08391 9.23481 4.19812 9.17064 4.32982L2.68285 17.6836C2.65223 17.7463 2.64254 17.817 2.6552 17.8855C2.66786 17.9539 2.70221 18.0166 2.75325 18.0644L4.33615 19.5436C4.3834 19.5878 4.44272 19.6172 4.5067 19.628C4.57069 19.6389 4.63648 19.6308 4.69585 19.6047L18.062 13.7324C18.1943 13.6743 18.3108 13.5858 18.4016 13.474C18.4924 13.3622 18.555 13.2306 18.584 13.0899C18.6131 12.9493 18.6078 12.8039 18.5686 12.6657C18.5295 12.5276 18.4577 12.4007 18.359 12.2956L10.6512 4.10728ZM18.5999 7.90801C18.5999 7.69101 18.6868 7.4829 18.8414 7.32946C18.9962 7.17603 19.206 7.08982 19.4249 7.08982H21.6249C21.8437 7.08982 22.0534 7.17603 22.2082 7.32946C22.3629 7.4829 22.4499 7.69101 22.4499 7.90801C22.4499 8.125 22.3629 8.33311 22.2082 8.48655C22.0534 8.63998 21.8437 8.72619 21.6249 8.72619H19.4249C19.206 8.72619 18.9962 8.63998 18.8414 8.48655C18.6868 8.33311 18.5999 8.125 18.5999 7.90801Z" fill="#C9AB42"/>
</g>
<defs>
<clipPath id="clip0_4512_250">
<rect width="22" height="24" fill="white" transform="translate(1)"/>
</clipPath>
</defs>
</svg>
